<?xml version="1.0" ?>
<!DOCTYPE svg  PUBLIC '-//W3C//DTD SVG 1.1//EN'  'http://www.w3.org/Graphics/SVG/1.1/DTD/svg11.dtd'>
<!-- Uploaded to: SVG Repo, www.svgrepo.com, Generator: SVG Repo Mixer Tools -->
<svg width="800px" height="800px" viewBox="0 0 91 91" enable-background="new 0 0 91 91" id="Layer_1" version="1.1" xml:space="preserve" xmlns="http://www.w3.org/2000/svg" xmlns:xlink="http://www.w3.org/1999/xlink">
<g>
<g>
<path d="M88.14,2.914L3.302,2.912c-0.666,0-1.303,0.264-1.771,0.734C1.06,4.115,0.796,4.751,0.796,5.416v80.314    c0,1.383,1.121,2.504,2.506,2.504h58.75c0.008,0,0.018,0.006,0.023,0.006c0.01,0,0.016-0.006,0.025-0.006h17.914    c5.861,0,10.629-4.768,10.629-10.629V5.419C90.644,4.037,89.522,2.914,88.14,2.914z" fill="#647F94"/>
</g>
<g>
<path d="M31.974,17.828c1.385,0,2.506-1.121,2.506-2.506v-2.553c0-1.385-1.121-2.504-2.506-2.504    c-1.383,0-2.504,1.119-2.504,2.504v2.553C29.47,16.707,30.591,17.828,31.974,17.828z" fill="#95AEC2"/>
<path d="M42.679,22.917c0.643,0,1.283-0.246,1.771-0.734l2.268-2.266c0.979-0.979,0.979-2.563,0-3.541    s-2.564-0.979-3.543,0l-2.266,2.264c-0.979,0.977-0.979,2.566,0,3.543C41.397,22.671,42.04,22.917,42.679,22.917z" fill="#95AEC2"/>
<path d="M40.872,40.187c-0.959,0.998-0.926,2.582,0.076,3.541l2.264,2.172c0.484,0.467,1.107,0.699,1.734,0.699    c0.658,0,1.314-0.262,1.807-0.771c0.959-1,0.928-2.586-0.074-3.543l-2.264-2.174C43.421,39.155,41.831,39.187,40.872,40.187z" fill="#95AEC2"/>
<path d="M31.974,40.503c5.174,0,9.381-4.209,9.381-9.38c0-5.174-4.207-9.385-9.381-9.385    c-5.176,0-9.387,4.211-9.387,9.385C22.587,36.294,26.798,40.503,31.974,40.503z" fill="#6EC4A7"/>
<path d="M45.269,31.123c0,1.384,1.123,2.505,2.506,2.505h2.547c1.381,0,2.504-1.121,2.504-2.505    c0-1.383-1.123-2.504-2.504-2.504h-2.547C46.392,28.619,45.269,29.74,45.269,31.123z" fill="#95AEC2"/>
<path d="M19.413,22.099c0.49,0.49,1.129,0.732,1.768,0.732c0.643,0,1.285-0.246,1.775-0.734    c0.975-0.979,0.975-2.564-0.004-3.543l-2.186-2.18c-0.979-0.977-2.563-0.977-3.541,0.002c-0.977,0.979-0.977,2.566,0.002,3.543    L19.413,22.099z" fill="#95AEC2"/>
<path d="M69.237,43.044L46.099,66.626l17.004,16.881h16.912c3.098,0,5.619-2.52,5.619-5.619V59.837L69.237,43.044z    " fill="#95AEC2"/>
<polygon fill="#6EC4A7" points="5.806,80.487 5.806,83.507 55.991,83.507 31.796,59.493   "/>
<path d="M19.413,40.144l-2.182,2.174c-0.982,0.977-0.984,2.563-0.006,3.543c0.488,0.492,1.131,0.738,1.773,0.738    c0.641,0,1.279-0.246,1.768-0.73l2.184-2.174c0.979-0.979,0.98-2.563,0.006-3.543C21.978,39.171,20.392,39.167,19.413,40.144z" fill="#95AEC2"/>
<path d="M13.624,33.628h2.545c1.383,0,2.504-1.121,2.504-2.505c0-1.383-1.121-2.504-2.504-2.504h-2.545    c-1.383,0-2.504,1.121-2.504,2.504C11.12,32.507,12.241,33.628,13.624,33.628z" fill="#95AEC2"/>
<path d="M29.47,46.921v2.545c0,1.383,1.121,2.504,2.504,2.504c1.385,0,2.506-1.121,2.506-2.504v-2.545    c0-1.383-1.121-2.504-2.506-2.504C30.591,44.417,29.47,45.538,29.47,46.921z" fill="#95AEC2"/>
</g>
</g>
</svg>