<?xml version="1.0" ?>
<!DOCTYPE svg  PUBLIC '-//W3C//DTD SVG 1.1//EN'  'http://www.w3.org/Graphics/SVG/1.1/DTD/svg11.dtd'>
<!-- Uploaded to: SVG Repo, www.svgrepo.com, Generator: SVG Repo Mixer Tools -->
<svg width="800px" height="800px" viewBox="0 0 91 91" enable-background="new 0 0 91 91" id="Layer_1" version="1.1" xml:space="preserve" xmlns="http://www.w3.org/2000/svg" xmlns:xlink="http://www.w3.org/1999/xlink">
<g>
<g>
<path d="M13.012,55.145L0.449,72.08l14.625,1.684c1.09,0.125,2.029,0.834,2.453,1.85l5.629,13.564l13.34-17.691    C26.754,69.174,18.41,63.236,13.012,55.145z" fill="#647F94"/>
<path d="M78.029,55.049c-5.34,8.051-13.586,13.98-23.225,16.354l13.402,17.775l5.627-13.564    c0.42-1.016,1.359-1.725,2.449-1.85l14.586-1.678L78.029,55.049z" fill="#647F94"/>
<path d="M45.49,16.163c-9.59,0-17.389,7.801-17.389,17.39c0,9.586,7.799,17.385,17.389,17.385    c9.588,0,17.391-7.799,17.391-17.385C62.881,23.964,55.078,16.163,45.49,16.163z" fill="#6EC4A7"/>
<path d="M78.455,33.552c0-18.178-14.787-32.967-32.963-32.967c-18.178,0-32.965,14.789-32.965,32.967    c0,18.174,14.787,32.961,32.965,32.961C63.668,66.514,78.455,51.727,78.455,33.552z M45.49,56.996    c-12.93,0-23.445-10.516-23.445-23.444c0-12.929,10.516-23.449,23.445-23.449c12.932,0,23.447,10.521,23.447,23.449    C68.938,46.48,58.422,56.996,45.49,56.996z" fill="#647F94"/>
</g>
</g>
</svg>