<?xml version="1.0" ?>
<!DOCTYPE svg  PUBLIC '-//W3C//DTD SVG 1.1//EN'  'http://www.w3.org/Graphics/SVG/1.1/DTD/svg11.dtd'>
<!-- Uploaded to: SVG Repo, www.svgrepo.com, Generator: SVG Repo Mixer Tools -->
<svg width="800px" height="800px" viewBox="0 0 91 91" enable-background="new 0 0 91 91" id="Layer_1" version="1.1" xml:space="preserve" xmlns="http://www.w3.org/2000/svg" xmlns:xlink="http://www.w3.org/1999/xlink">
<g>
<g>
<polygon fill="#95AEC2" points="75.212,16.84 87.785,0.666 3.696,0.66 16.273,16.84   "/>
<path d="M78.832,21.406c-0.536,0.689-1.362,1.094-2.236,1.094H48.571v19.688    c6.898,1.328,12.125,7.404,12.125,14.686c0,8.244-6.707,14.955-14.956,14.955s-14.962-6.711-14.962-14.955    c0-7.281,5.234-13.357,12.134-14.686V22.5H14.886c-0.873,0-1.697-0.404-2.234-1.094L0.739,6.082v84.02h83.212    c3.743,0,6.791-3.047,6.791-6.793V6.082L78.832,21.406z" fill="#647F94"/>
<path d="M36.44,56.873c0,5.125,4.172,9.293,9.3,9.293s9.299-4.168,9.299-9.293c0-5.129-4.171-9.303-9.299-9.303    S36.44,51.744,36.44,56.873z" fill="#6EC4A7"/>
</g>
</g>
</svg>