<?xml version="1.0" ?>
<!DOCTYPE svg  PUBLIC '-//W3C//DTD SVG 1.1//EN'  'http://www.w3.org/Graphics/SVG/1.1/DTD/svg11.dtd'>
<!-- Uploaded to: SVG Repo, www.svgrepo.com, Generator: SVG Repo Mixer Tools -->
<svg width="800px" height="800px" viewBox="0 0 91 91" enable-background="new 0 0 91 91" id="Layer_1" version="1.1" xml:space="preserve" xmlns="http://www.w3.org/2000/svg" xmlns:xlink="http://www.w3.org/1999/xlink">
<g>
<g>
<path d="M59.02,79.74H44.482c-1.385,0-2.506-1.119-2.506-2.504V13.141c0-1.383,1.121-2.506,2.506-2.506H59.02    c1.385,0,2.506,1.123,2.506,2.506s-1.121,2.504-2.506,2.504H46.986V74.73H59.02c1.385,0,2.506,1.123,2.506,2.506    C61.525,78.621,60.404,79.74,59.02,79.74z" fill="#647F94"/>
<path d="M59.02,47.693h-26.85c-1.385,0-2.506-1.121-2.506-2.506s1.121-2.504,2.506-2.504h26.85    c1.385,0,2.506,1.119,2.506,2.504S60.404,47.693,59.02,47.693z" fill="#647F94"/>
<g>
<path d="M69.451,65.137c-6.676,0-12.105,5.43-12.105,12.102s5.43,12.1,12.105,12.1     c6.674,0,12.104-5.428,12.104-12.1S76.125,65.137,69.451,65.137z" fill="#45596B"/>
<path d="M69.451,33.203c-6.676,0-12.105,5.428-12.105,12.102c0,6.67,5.43,12.098,12.105,12.098     c6.674,0,12.104-5.428,12.104-12.098C81.555,38.631,76.125,33.203,69.451,33.203z" fill="#45596B"/>
<path d="M69.451,25.24c6.674,0,12.104-5.428,12.104-12.098c0-6.674-5.43-12.104-12.104-12.104     c-6.676,0-12.105,5.43-12.105,12.104C57.346,19.813,62.775,25.24,69.451,25.24z" fill="#45596B"/>
</g>
<path d="M32.169,29.5H10.693c-1.383,0-2.504,1.123-2.504,2.506v26.592c0,1.383,1.121,2.506,2.504,2.506h21.477    c1.383,0,2.504-1.123,2.504-2.506V32.006C34.673,30.623,33.552,29.5,32.169,29.5z" fill="#6EC4A7"/>
</g>
</g>
</svg>