<?xml version="1.0" ?>
<!DOCTYPE svg  PUBLIC '-//W3C//DTD SVG 1.1//EN'  'http://www.w3.org/Graphics/SVG/1.1/DTD/svg11.dtd'>
<!-- Uploaded to: SVG Repo, www.svgrepo.com, Generator: SVG Repo Mixer Tools -->
<svg width="800px" height="800px" viewBox="0 0 91 91" enable-background="new 0 0 91 91" id="Layer_1" version="1.1" xml:space="preserve" xmlns="http://www.w3.org/2000/svg" xmlns:xlink="http://www.w3.org/1999/xlink">
<g>
<g>
<path d="M25.891,89.987c-0.672,0-1.352-0.203-1.939-0.623c-1.502-1.072-1.848-3.158-0.775-4.658l13.117-18.361    c1.076-1.502,3.162-1.846,4.66-0.775c1.5,1.072,1.85,3.158,0.775,4.658L28.612,88.589C27.959,89.501,26.932,89.987,25.891,89.987z    " fill="#45596B"/>
<path d="M65,89.987c-1.043,0-2.068-0.486-2.721-1.398L49.16,70.228c-1.07-1.5-0.725-3.586,0.777-4.658    c1.5-1.07,3.586-0.725,4.658,0.775l13.119,18.361c1.074,1.5,0.725,3.586-0.775,4.658C66.352,89.784,65.672,89.987,65,89.987z" fill="#45596B"/>
<path d="M82.611,1.69H8.278c-1.383,0-2.506,1.121-2.506,2.504v64.094c0,1.385,1.123,2.506,2.506,2.506h66.365    c5.773,0,10.475-4.697,10.475-10.473V4.194C85.117,2.812,83.994,1.69,82.611,1.69z" fill="#647F94"/>
<g>
<path d="M44.624,29.89c-1.383,0-2.506,1.121-2.506,2.504v23.422c0,1.385,1.123,2.506,2.506,2.506     c1.382,0,2.503-1.121,2.503-2.506V32.394C47.127,31.011,46.006,29.89,44.624,29.89z" fill="#95AEC2"/>
<path d="M28.706,38.79c-1.383,0-2.506,1.121-2.506,2.504v14.523c0,1.383,1.123,2.504,2.506,2.504     s2.506-1.121,2.506-2.504V41.294C31.211,39.911,30.088,38.79,28.706,38.79z" fill="#95AEC2"/>
<path d="M62.643,36.915c-1.383,0-2.504,1.121-2.504,2.506v16.395c0,1.385,1.121,2.506,2.504,2.506     s2.506-1.121,2.506-2.506V39.421C65.148,38.036,64.025,36.915,62.643,36.915z" fill="#95AEC2"/>
<path d="M73.236,16.585c-0.971-0.99-2.557-1.008-3.541-0.039l-10.178,9.957L40.311,16.134     c-0.877-0.475-1.953-0.385-2.74,0.234L17.897,31.833c-1.088,0.854-1.275,2.43-0.422,3.518c0.492,0.627,1.23,0.957,1.971,0.957     c0.541,0,1.09-0.176,1.545-0.537l18.385-14.447l19.386,10.465c0.965,0.52,2.156,0.354,2.941-0.414l11.494-11.246     C74.186,19.159,74.203,17.573,73.236,16.585z" fill="#6EC4A7"/>
</g>
<path d="M87.578,7.534H3.454c-1.846,0-3.34-1.494-3.34-3.34c0-1.844,1.494-3.34,3.34-3.34h84.125    c1.844,0,3.342,1.496,3.342,3.34C90.92,6.04,89.422,7.534,87.578,7.534z" fill="#45596B"/>
</g>
</g>
</svg>