<?xml version="1.0" ?>
<!DOCTYPE svg  PUBLIC '-//W3C//DTD SVG 1.1//EN'  'http://www.w3.org/Graphics/SVG/1.1/DTD/svg11.dtd'>
<!-- Uploaded to: SVG Repo, www.svgrepo.com, Generator: SVG Repo Mixer Tools -->
<svg width="800px" height="800px" viewBox="0 0 91 91" enable-background="new 0 0 91 91" id="Layer_1" version="1.1" xml:space="preserve" xmlns="http://www.w3.org/2000/svg" xmlns:xlink="http://www.w3.org/1999/xlink">
<g>
<g>
<path d="M11.502,34.972c4.615,0,8.367-3.752,8.367-8.361s-3.752-8.361-8.367-8.361    c-4.607,0-8.357,3.752-8.357,8.361S6.895,34.972,11.502,34.972z" fill="#647F94"/>
<path d="M45.412,39.011c7.982,0,14.477-6.494,14.477-14.477s-6.494-14.473-14.477-14.473    c-7.98,0-14.471,6.49-14.471,14.473S37.432,39.011,45.412,39.011z" fill="#45596B"/>
<path d="M57.699,40.481c-3.408,2.631-7.66,4.213-12.287,4.213c-4.574,0-8.777-1.549-12.164-4.123    c-4.039,2.23-6.189,5.641-6.189,9.955v27.117c2.744,1.83,10.24,6.279,18.355,6.279c10.766,0,16.711-4.305,18.635-6.002V50.524    C64.049,46.251,61.793,42.733,57.699,40.481z" fill="#45596B"/>
<path d="M22.434,36.437c-2.693,2.996-6.592,4.893-10.932,4.893c-3.029,0-5.846-0.92-8.189-2.496    c-1.84,1.203-2.752,2.877-2.752,5.096v16.408c4.596,3.592,15.475,4.756,23.287-0.139V48.991c0-2.963,0.656-5.725,1.875-8.211    C25.377,39.468,23.902,37.737,22.434,36.437z" fill="#647F94"/>
<path d="M79.703,34.972c-4.615,0-8.367-3.752-8.367-8.361s3.752-8.361,8.367-8.361    c4.607,0,8.357,3.752,8.357,8.361S84.311,34.972,79.703,34.972z" fill="#647F94"/>
<path d="M68.77,36.437c2.695,2.996,6.594,4.893,10.934,4.893c3.029,0,5.846-0.92,8.189-2.496    c1.84,1.203,2.75,2.877,2.75,5.096v16.408c-4.594,3.592-15.473,4.756-23.285-0.139V48.991c0-2.963-0.656-5.725-1.875-8.211    C65.828,39.468,67.303,37.737,68.77,36.437z" fill="#647F94"/>
</g>
</g>
</svg>