<?xml version="1.0" encoding="utf-8"?>
<!-- Uploaded to: SVG Repo, www.svgrepo.com, Generator: SVG Repo Mixer Tools -->
<svg width="800px" height="800px" viewBox="0 0 1024 1024" class="icon"  version="1.1" xmlns="http://www.w3.org/2000/svg"><path d="M249.5 455.9c63.2 0 114.5-50.7 114.5-113s-51.4-113-114.5-113c-63.1 0.1-114.5 50.7-114.5 113-0.3 29.6 11.2 57.6 32.2 78.9 21.8 22 51 34.1 82.3 34.1zM175 343c0-40.2 33.4-73 74.5-73s74.5 32.7 74.5 73-33.4 73-74.5 73c-20.5 0-39.7-7.9-53.9-22.3-13.5-13.6-20.8-31.6-20.6-50.5v-0.2zM682.1 507.5l31.8-62.6c7.1-14 8.4-29.2 3.5-41.7-3.8-9.7-11-17-20.2-20.4-4-1.5-8.2-2.3-12.5-2.3-16.8 0-32.6 11.8-44.3 33.1l-27 52.5c-32.9 2.7-50.7 30.9-59.5 44.8l-46.2 74.8-75.7-49.6-0.6-0.4c-45.4-27.5-84.9-48.6-143.7-48.6-4.1 0-8.1 0.2-11.6 0.4-2.6 0.1-5 0.2-6.8 0.2H244.9l-1.7 0.1c-76 8.7-117.1 42.6-138.2 69.4-32.3 41.2-33.6 83.2-33.1 95.8v253.5c0 12.7 4.8 24.7 13.8 34.5l0.8 0.8c9.2 9 22.1 14.1 35.4 14.1h245.9c27.6 0 50.1-22.2 50.1-49.6v-177l61 27.3c9.3 5.1 19.3 7.6 29.6 7.6 33.1 0 61.2-26.6 76.4-51.4l90.6-146.2c14.6-23.9 14.4-40.3 6.6-59.1z m-40.8 38.1l-90.6 146.3c-11.9 19.4-28.9 32.4-42.4 32.4-3.7 0-7.3-1-10.8-3l-1.1-0.6-90.3-40.5-3.9-1.8h-4.3c-11.1 0-20.1 9-20.1 20.1v207.9c0 5.2-4.6 9.6-10.1 9.6H121.8c-2.7 0-5.4-0.9-7.1-2.4-2-2.3-2.9-4.6-2.9-7.1V651.7c-0.8-17.7 5.3-45.3 24.6-69.9 23.7-30.1 60.7-48.4 110.2-54.3h22.7c2.7 0 5.6-0.1 8.7-0.3 3.2-0.2 6.5-0.3 9.6-0.3 48.6 0 80.2 16.9 122.7 42.6l99.5 65.3 17.3-4.5 60.7-98.2c12.3-19.4 20.3-26.3 30.7-26.3 1.2 0 2.5 0.1 3.9 0.3l6.3 0.8 11.9-6.2-0.5 1.1v10.1l2.1 4.3c6.8 13.7 7.2 16.2-0.9 29.4z" fill="#999799" /><path d="M901.4 63.5H378.3c-11 0-20 9-20 20s9 20 20 20h523.1c8.3 0 15.1 7.1 15.1 15.8v778.1c0 8.7-6.8 15.8-15.1 15.8h-248c-11 0-20 9-20 20s9 20 20 20h248c30.4 0 55.1-25 55.1-55.8v-778c0-30.8-24.7-55.9-55.1-55.9z" fill="#666666" /><path d="M828.8 210c0-18.9-15.4-34.4-34.4-34.4h-291c-18.9 0-34.4 15.4-34.4 34.4s15.4 34.4 34.4 34.4h291.1c18.9 0 34.3-15.4 34.3-34.4zM495 294c-13.2 0-24 10.7-24 24 0 13.2 10.7 24 24 24h164.4c13.2 0 24-10.7 24-24 0-13.2-10.7-24-24-24H495z" fill="#666666" /><path d="M249.5 455.9c63.2 0 114.5-50.7 114.5-113s-51.4-113-114.5-113c-63.1 0.1-114.5 50.7-114.5 113-0.3 29.6 11.2 57.6 32.2 78.9 21.8 22 51 34.1 82.3 34.1zM175 343c0-40.2 33.4-73 74.5-73s74.5 32.7 74.5 73-33.4 73-74.5 73c-20.5 0-39.7-7.9-53.9-22.3-13.5-13.6-20.8-31.6-20.6-50.5v-0.2zM682.1 507.5l31.8-62.6c7.1-14 8.4-29.2 3.5-41.7-3.8-9.7-11-17-20.2-20.4-4-1.5-8.2-2.3-12.5-2.3-16.8 0-32.6 11.8-44.3 33.1l-27 52.5c-32.9 2.7-50.7 30.9-59.5 44.8l-46.2 74.8-75.7-49.6-0.6-0.4c-45.4-27.5-84.9-48.6-143.7-48.6-4.1 0-8.1 0.2-11.6 0.4-2.6 0.1-5 0.2-6.8 0.2H244.9l-1.7 0.1c-76 8.7-117.1 42.6-138.2 69.4-32.3 41.2-33.6 83.2-33.1 95.8v253.5c0 12.7 4.8 24.7 13.8 34.5l0.8 0.8c9.2 9 22.1 14.1 35.4 14.1h245.9c27.6 0 50.1-22.2 50.1-49.6v-177l61 27.3c9.3 5.1 19.3 7.6 29.6 7.6 33.1 0 61.2-26.6 76.4-51.4l90.6-146.2c14.6-23.9 14.4-40.3 6.6-59.1z m-40.8 38.1l-90.6 146.3c-11.9 19.4-28.9 32.4-42.4 32.4-3.7 0-7.3-1-10.8-3l-1.1-0.6-90.3-40.5-3.9-1.8h-4.3c-11.1 0-20.1 9-20.1 20.1v207.9c0 5.2-4.6 9.6-10.1 9.6H121.8c-2.7 0-5.4-0.9-7.1-2.4-2-2.3-2.9-4.6-2.9-7.1V651.7c-0.8-17.7 5.3-45.3 24.6-69.9 23.7-30.1 60.7-48.4 110.2-54.3h22.7c2.7 0 5.6-0.1 8.7-0.3 3.2-0.2 6.5-0.3 9.6-0.3 48.6 0 80.2 16.9 122.7 42.6l99.5 65.3 17.3-4.5 60.7-98.2c12.3-19.4 20.3-26.3 30.7-26.3 1.2 0 2.5 0.1 3.9 0.3l6.3 0.8 11.9-6.2-0.5 1.1v10.1l2.1 4.3c6.8 13.7 7.2 16.2-0.9 29.4z" fill="#999799" /><path d="M249.5 455.9c63.2 0 114.5-50.7 114.5-113s-51.4-113-114.5-113c-63.1 0.1-114.5 50.7-114.5 113-0.3 29.6 11.2 57.6 32.2 78.9 21.8 22 51 34.1 82.3 34.1z" fill="#666666" /><path d="M175 343c0-40.2 33.4-73 74.5-73s74.5 32.7 74.5 73-33.4 73-74.5 73c-20.5 0-39.7-7.9-53.9-22.3-13.5-13.6-20.8-31.6-20.6-50.5v-0.2z" fill="#CCCCCC" /><path d="M682.1 507.5l31.8-62.6c7.1-14 8.4-29.2 3.5-41.7-3.8-9.7-11-17-20.2-20.4-4-1.5-8.2-2.3-12.5-2.3-16.8 0-32.6 11.8-44.3 33.1l-27 52.5c-32.9 2.7-50.7 30.9-59.5 44.8l-46.2 74.8-75.7-49.6-0.6-0.4c-45.4-27.5-84.9-48.6-143.7-48.6-4.1 0-8.1 0.2-11.6 0.4-2.6 0.1-5 0.2-6.8 0.2H244.9l-1.7 0.1c-76 8.7-117.1 42.6-138.2 69.4-32.3 41.2-33.6 83.2-33.1 95.8v253.5c0 12.7 4.8 24.7 13.8 34.5l0.8 0.8c9.2 9 22.1 14.1 35.4 14.1h245.9c27.6 0 50.1-22.2 50.1-49.6v-177l61 27.3c9.3 5.1 19.3 7.6 29.6 7.6 33.1 0 61.2-26.6 76.4-51.4l90.6-146.2c14.6-23.9 14.4-40.3 6.6-59.1z" fill="#666666" /><path d="M641.3 545.6l-90.6 146.3c-11.9 19.4-28.9 32.4-42.4 32.4-3.7 0-7.3-1-10.8-3l-1.1-0.6-90.3-40.5-3.9-1.8h-4.3c-11.1 0-20.1 9-20.1 20.1v207.9c0 5.2-4.6 9.6-10.1 9.6H121.8c-2.7 0-5.4-0.9-7.1-2.4-2-2.3-2.9-4.6-2.9-7.1V651.7c-0.8-17.7 5.3-45.3 24.6-69.9 23.7-30.1 60.7-48.4 110.2-54.3h22.7c2.7 0 5.6-0.1 8.7-0.3 3.2-0.2 6.5-0.3 9.6-0.3 48.6 0 80.2 16.9 122.7 42.6l99.5 65.3 17.3-4.5 60.7-98.2c12.3-19.4 20.3-26.3 30.7-26.3 1.2 0 2.5 0.1 3.9 0.3l6.3 0.8 11.9-6.2-0.5 1.1v10.1l2.1 4.3c6.8 13.7 7.2 16.2-0.9 29.4z" fill="#CCCCCC" /></svg>