<?xml version="1.0" encoding="utf-8"?>
<!-- Uploaded to: SVG Repo, www.svgrepo.com, Generator: SVG Repo Mixer Tools -->
<svg width="800px" height="800px" viewBox="0 0 55.818 55.818" xmlns="http://www.w3.org/2000/svg">
  <g id="Group_6" data-name="Group 6" transform="translate(-1212.948 -289.602)">
    <path id="Path_19" data-name="Path 19" d="M1249.54,294.79s-4.5.25-5,6.25a17.908,17.908,0,0,0,2.5,10.5s2.193-1.558-.028,5.971,7.278,14.529,10.778,6.279-.5-11.783,2-12.641a33.771,33.771,0,0,0,5.382-2.6l-3.229-6.081-5.21-5.421-7.43-4.027Z" fill="#d1d3d4"/>
    <path id="Path_20" data-name="Path 20" d="M1219.365,331.985s2.675-14.195,6.425-10.695.25,5.5,2.5,9,5.25,1.5,5.5,5.5.755,6.979,2.618,7.241S1222.967,339.984,1219.365,331.985Z" fill="#d1d3d4"/>
    <path id="Path_21" data-name="Path 21" d="M1266.766,317.511a25.909,25.909,0,1,1-25.91-25.909A25.909,25.909,0,0,1,1266.766,317.511Z" fill="none" stroke="#231f20" stroke-linecap="round" stroke-linejoin="round" stroke-width="4"/>
    <path id="Path_22" data-name="Path 22" d="M1240.122,311.619a6.078,6.078,0,1,1-6.078-6.079A6.079,6.079,0,0,1,1240.122,311.619Z" fill="#d1d3d4"/>
  </g>
</svg>