<?xml version="1.0" encoding="utf-8"?>
<!-- Generator: Adobe Illustrator 26.5.0, SVG Export Plug-In . SVG Version: 6.00 Build 0)  -->
<svg version="1.1" id="Layer_1" xmlns="http://www.w3.org/2000/svg" xmlns:xlink="http://www.w3.org/1999/xlink" x="0px" y="0px"
	 viewBox="0 0 897.6 889.4" style="enable-background:new 0 0 897.6 889.4;" xml:space="preserve">
<style type="text/css">
	.st0{fill:#141414;}
</style>
<g>
	<g>
		<path class="st0" d="M23.4,425.8C23.4,191.2,213.9,0.7,448.5,0.7c197.8,0,369.8,137.5,414.2,328.7l33.8-4l-43.7,100.4l-64.9-88.1
			l32.8-3.6C778.9,164.4,625.1,42.8,448.9,42.8c-211.1,0-383,171.6-383,383H23.4z"/>
	</g>
	<g>
		<path class="st0" d="M613.9,602.1c-5,0-9.3,1.3-12.6,4.3c-4,3.6-6,8.3-6,13.9s2,10.3,6,13.9c3.3,3,7.6,4.6,12.6,4.6
			s9.3-1.7,12.6-4.6c2-1.7,3.6-4,4.6-6.6c1-2.3,1.3-4.6,1.3-7.3c0-6-2-10.6-6-14.2C623.2,603.8,619.2,602.1,613.9,602.1"/>
	</g>
	<g>
		<path class="st0" d="M603.9,689.3c-1.3-0.7-2.7-1.3-4.3-1.3c-1.3-0.3-4.3-0.3-8-0.3h-25.5v19.9h25.5c3.6,0,6.3,0,8-0.3
			s3-0.7,4.3-1.3c3-1.7,4.3-4.3,4.3-8.3C608.2,693.6,606.9,690.6,603.9,689.3"/>
	</g>
	<g>
		<path class="st0" d="M690.8,616.4c1,0,2-0.3,3-1c2-1,3-3,3-5.6c0-2.7-1-4.6-3-5.6c-1-0.7-2-1-3-1s-3-0.3-5.6-0.3h-17.6v13.9h17.9
			C687.8,616.7,689.8,616.7,690.8,616.4"/>
	</g>
</g>
<polygon class="st0" points="316.3,721.1 340.8,721.1 328.6,693.9 "/>
<g>
	<g>
		<path class="st0" d="M713.3,753.9h-1.7c-0.3-1.3-1-2.3-1.3-2.7c-0.7-0.7-1.3-0.7-2.7-0.7H639v-1.7c1.3-0.3,2.3-1,2.7-1.3
			c0.7-0.7,0.7-1.3,0.7-2.7v-64c0-1-0.3-2-0.7-2.7c-0.7-0.7-1.3-1-2.7-1.3v-1.7h67.3c1,0,2-0.3,2.7-0.7c0.7-0.7,1-1.3,1.3-2.7h1.7
			v19.5h-1.7c-0.3-1.3-1-2.3-1.3-2.7c-0.7-0.7-1.3-0.7-2.7-0.7h-47.1v17.9h30.5c1,0,2-0.3,2.7-0.7c0.7-0.7,1-1.3,1.3-2.7h1.7v19.2
			h-1.7c-0.3-1.3-1-2.3-1.3-2.7c-0.7-0.7-1.3-0.7-2.7-0.7h-30.5v20.5h48.4c1,0,2-0.3,2.7-0.7c0.7-0.7,1-1.3,1.3-2.7h1.7L713.3,753.9
			L713.3,753.9z M613.9,647.9c-9.3,0-16.6-2.7-21.9-7.6c-3-2.7-5-6-6.6-9.6c-1.3-3.3-2-6.6-2-10.3c0-5.3,1.3-10.3,4-14.6
			c5.3-8.3,13.9-12.6,26.2-12.9c9.3,0,16.6,2.7,21.9,7.6c5.6,5.3,8.6,11.9,8.6,20.2c0,5-1.3,9.6-4,14.2
			C635.1,643.5,626.1,647.9,613.9,647.9 M628.8,750.6h-27.2v-1.7c2-0.3,3-1,3-2c0-0.7-1-2.3-2.7-5l-15.2-22.2h-20.2v25.2
			c0,1,0.3,2,0.7,2.7c0.7,0.7,1.3,1,2.7,1.3v1.7h-23.5v-1.7c1.3-0.3,2.3-1,2.7-1.3c0.7-0.7,0.7-1.3,0.7-2.7v-64c0-1-0.3-2-0.7-2.7
			c-0.7-0.7-1.3-1-2.7-1.3v-1.7h47.1c5.6,0,10.3,0.3,13.6,1s6.3,2,8.6,3.6c3,2,5,4.6,6.6,8c1.3,3.3,2,6.6,2,10.3
			c0,12.3-7,19.5-20.5,21.5l14.6,20.9c2.7,3.6,4.3,6,5.6,7s2.7,1.7,4.3,1.7v1.3h0.5V750.6z M544.3,646.9h-16.6v-1.3
			c1-0.3,1.7-0.7,2-1s0.7-1,0.7-2v-44.7c0-0.7-0.3-1.3-0.7-1.7c-0.3-0.3-1-0.7-2-1v-1.3h46.7c0.7,0,1.3-0.3,1.7-0.7
			c0.3-0.3,0.7-1,1-2h1.3v13.6h-1.3c-0.3-1-0.7-1.7-1-2s-1-0.7-1.7-0.7h-32.8v12.6h21.5c0.7,0,1.3-0.3,1.7-0.7s0.7-1,1-2h1.3v13.3
			h-1.3c-0.3-1-0.7-1.7-1-2s-1-0.7-1.7-0.7h-21.5v19.2c0,0.7,0.3,1.3,0.7,2c0.3,0.3,1,0.7,2,1L544.3,646.9L544.3,646.9z M533,676.7
			c-1.3,0.3-2.3,1-2.7,1.3c-0.7,0.7-0.7,1.3-0.7,2.7v42.4c0,8-1.3,13.9-4.3,17.9c-5.3,7.3-16.2,10.6-32.8,10.6
			c-11.9,0-21.2-2-27.5-6c-3.6-2.3-6.3-5.3-7.6-9.3c-1.3-4-2-8.3-2-13.6v-42.4c0-1-0.3-2-0.7-2.7c-0.7-0.7-1.3-1-2.7-1.3v-1.7h23.5
			v1.7c-1.3,0.3-2.3,0.7-2.7,1.3c-0.7,0.7-0.7,1.3-0.7,2.7v37.8c0,4.3,0.3,7.6,0.7,9.6c0.3,2,1.3,4,2.7,5.3
			c3.6,3.6,9.6,5.6,18.2,5.6s14.6-2,18.2-5.6c1.3-1.3,2.3-3,2.7-5.3c0.3-2,0.7-5.3,0.7-9.6v-37.8c0-1-0.3-2-0.7-2.7
			c-0.7-0.7-1.3-1-2.7-1.3v-1.7h22.2v2L533,676.7L533,676.7z M653.3,645.9c1-0.3,1.7-0.7,2-1s0.7-1,0.7-1.7v-44.7
			c0-0.7,0-1.3-0.7-1.7c-0.3-0.3-1-0.7-2-1v-1.3h33.1c4,0,7.3,0.3,9.6,0.7s4.3,1.3,6.3,2.3c2,1.3,3.6,3.3,4.6,5.3
			c1,2.3,1.3,4.6,1.3,7c0,8.6-4.6,13.6-14.2,15.2l10.3,14.6c2,2.7,3,4.3,4,5c0.7,0.7,2,1,3,1.3v1.3h-19.2v-1.3c1.3-0.3,2-0.7,2-1.3
			c0-0.3-0.7-1.7-2-3.3l-10.6-15.6h-13.9v17.6c0,0.7,0.3,1.3,0.7,1.7c0.3,0.3,1,0.7,2,1v1.3h-16.6V646L653.3,645.9L653.3,645.9z
			 M444.2,690.9h-2c-0.3-1.3-1-2.3-1.3-2.7c-0.7-0.7-1.3-0.7-2.7-0.7h-23.5v57.3c0,1,0.3,2,0.7,2.7c0.7,0.7,1.3,1,2.7,1.3v1.7h-23.5
			v-1.7c1.3-0.3,2.3-1,2.7-1.3c0.7-0.7,0.7-1.3,0.7-2.7v-57.3h-23.5c-1,0-2,0.3-2.7,0.7c-0.7,0.3-1,1.3-1.3,2.7h-1v-19.5h1.7
			c0.3,1.3,1,2.3,1.3,2.7c0.7,0.7,1.3,0.7,2.7,0.7h63.3c1,0,2-0.3,2.7-0.7c0.7-0.7,1-1.3,1.3-2.7h1.7L444.2,690.9L444.2,690.9z
			 M376,750.6h-27.8v-1.7c2.3-0.3,3.6-1.7,3.6-3.3c0-0.7-0.3-2-1-3.3l-5.3-10.6h-34.1l-5,10.6c-0.7,1.3-1,2.7-1,3.3
			c0,1.7,1.3,2.7,3.6,3.3v1.7h-24.9v-1.7c1.3-0.3,2.7-0.7,3.3-1.7c0.7-0.7,1.7-2.3,2.7-4.3l27.8-58c1-2,1.3-3.3,1.3-4.3
			c0-1.7-1-3-3.3-3.6v-1.7h26.8v1.7c-2.3,0.7-3.3,1.7-3.3,3.3c0,1,0.3,2.3,1,3.6l28.8,58c1.3,2.3,2.3,4.3,3.3,5c1,1,2.3,1.7,3.6,1.7
			v2H376z M274.2,676.7c-1.3,0.3-2.3,1-2.7,1.3c-0.7,0.7-0.7,1.3-0.7,2.7v64c0,1,0.3,2,0.7,2.7c0.7,0.7,1.3,1,2.7,1.3v1.7h-23.9
			v-1.7c1.7-0.3,2.3-1,2.3-2.3c0-0.7-1-2-2.7-4l-42.4-43.7v45.7c0,1,0.3,2,0.7,2.7c0.7,0.7,1.3,1,2.7,1.3v1.7h-22.2v-1.7
			c1.3-0.3,2.3-1,2.7-1.3c0.7-0.7,0.7-1.3,0.7-2.7v-64c0-1-0.3-2-0.7-2.7c-0.7-0.7-1.3-1-2.7-1.3v-1.7h25.5v1.7
			c-1.7,0.3-2.3,1.3-2.3,2.7c0,1,0.7,2,1.7,3l41.8,43.4v-44.7c0-1-0.3-2-0.7-2.7c-0.7-0.7-1.3-1-2.7-1.3V675h22.2
			C274.2,675,274.2,676.7,274.2,676.7z M832.9,464.3c0,33.1-4.3,65.6-12.3,96.4c-27.5-13.6-70.2-22.2-85.8-32.8
			c-13.9-3-26.8,5.6-39.4,8c-9.9-3.3-24.9,1.3-32.8-9.9c-16.9-17.2-42.7-22.2-61.3-36.8c-6-6.3-14.9-8.3-22.2-10.3
			c-3.3,2.7-6.6,2.7-9.6,2.3c-20.9,33.8-48.7,46.7-70.9,79.2c-17.2,5.6-31.5,16.2-44.4,28.5c-12.9,6.3-20.5,15.9-31.8,22.5
			c-2.3,2.3-3.6,3.3-6,4.3c-6-2.7-12.3-1.3-19.2-4.3c-5.6,0.7-9.3-5.6-14.2-2.3c-8.6,0.7-13.6,8-20.5,11.3
			c-9.3,9.9-21.9,13.9-30.8,21.9c-18.9-2.3-34.8-17.2-53.7-22.9c-4.3-3-8.3-10.3-12.3-13.3c0-0.3-0.3-1.3-0.7-2
			c-13.3-3.3-29.2,1.7-38.4-11.9c-6.6-2.7-12.3-4.6-17.9-8.3c-17.6,6.6-28.5,31.8-49.4,27.8c-16.6,11.3-29.2,26.8-44.7,37.1l0,0
			c-15.9-28.5-28.2-59.6-36.1-92.4l32.8-3.6l-64.9-88.1l-44.2,100l33.8-4c44.4,191.2,216.4,328.7,414.2,328.7
			c234.6,0,425.1-190.9,425.1-425.1L832.9,464.3L832.9,464.3z"/>
	</g>
	<g>
		<path class="st0" d="M673.9,354.9c0,41.8,7,51,20.2,51c12.9,0,20.2-9.3,20.2-51s-7-51.4-20.2-51.4S673.9,313.2,673.9,354.9
			 M752.7,354.9c0,40.4-15.9,71.9-58.6,71.9c-42.7,0-58.6-31.5-58.6-71.9s15.9-72.2,58.6-72.2S752.7,314.5,752.7,354.9 M682.5,184
			h21.2L556.2,426.8H536L682.5,184z M523.1,256.2c0,41.8,7,51,20.2,51c12.9,0,20.2-9.3,20.2-51c0-41.8-7-51.4-20.2-51.4
			C530,204.8,523.1,214.4,523.1,256.2 M601.9,256.2c0,40.4-15.9,71.9-58.6,71.9s-58.6-31.5-58.6-71.9s15.9-72.2,58.6-72.2
			C586,184,601.9,215.8,601.9,256.2"/>
	</g>
	<g>
		<path class="st0" d="M318.3,286c-27.2,0-53.7,5-77.5,21.2l1.7-58.3c14.2,5.6,33.8,8.9,54.3,8.9c75.5,0,156.7-32.8,156.7-78.9
			c0-7-4-11.6-11.3-11.6c-5.3,0-26.2,2.7-50.4,4.3c-24.2,2.7-52,5-72.6,5c-20.5,0-41.4-0.7-61.6-2c-20.5-2-41.4-4.3-62-7.6
			l-11.9,180.3c8,9.6,31.5,27.5,41.4,27.8c164-116,204.4,79.9,188.9,136.5c-64.9-20.9-253.5,10.6-215-97.7c2.3-6,3.6-11.3,8.6-19.5
			c-26.8,7.6-47.4,39.4-47.4,70.2c0,85.8,82.2,109.3,147.8,109.3c83.5,0,160.7-46.1,160.7-146.1C469.1,332.7,400.5,286,318.3,286"/>
	</g>
	<g>
		<path class="st0" d="M406.1,496.1c-20.5-39.1-63.6-56.3-106.4-71.9c-27.5-9.9-55.7-20.2-77.5-36.4l-0.7-0.7l-0.7,0.3
			c-1.3,0.7-1.7,2-1.3,2.7c0.3,5.3,20.2,14.2,62.3,31.5c14.9,6,30.5,12.3,41.4,17.6c29.5,13.3,57.3,34.8,80.9,58.6l6.3,6.3
			L406.1,496.1z"/>
	</g>
	<g>
		<path class="st0" d="M260,396.4c6,0,22.2-1.3,39.1-12.3c12.9-8.3,13.6-10.6,12.9-11.9c-0.3-0.7-1-1.7-2.7-1.7c-1,0-2,0.3-2.3,0.3
			l-0.7,0.3c-0.3,0.3-30.2,22.9-49,22.9v2.7C258,396.4,258.7,396.4,260,396.4"/>
	</g>
	<g>
		<path class="st0" d="M301.7,412.3c0,0,0.7,0,2,0l0,0c5.3,0,19.5-1,34.5-10.9c11.3-7.3,11.9-9.3,11.6-10.9
			c-0.3-0.7-0.7-1.3-2.7-1.3c-1,0-2,0.3-2,0.3l-0.7,0.3c-0.3,0.3-26.2,19.9-43.1,19.9L301.7,412.3z"/>
	</g>
	<g>
		<path class="st0" d="M341.2,433.5c0,0,0.7,0,1.7,0c4.6,0,17.2-1,30.5-9.6c9.9-6.6,10.6-8.3,10.3-9.6c0-0.7-0.7-1.3-2.3-1.3
			c-1,0-1.7,0.3-1.7,0.3l-0.3,0.3c-0.3,0.3-23.2,17.6-37.4,17.6L341.2,433.5z"/>
	</g>
	<g>
		<path class="st0" d="M286.2,430.5l-1.7,2c9.3,9.6-0.3,36.8-0.3,37.1v0.3v0.3c0,0.3,1,2.7,3,2.7s4-1.7,7-13.3
			C298.4,440.8,286.5,430.8,286.2,430.5"/>
	</g>
	<g>
		<path class="st0" d="M323.6,444.4l-1.7,2c9.3,9.6-0.3,36.8-0.3,37.1v0.3l0.3,0.3c0,0.3,1,2.7,3,2.7s4-1.7,7-13.3
			C335.9,455,324.3,444.7,323.6,444.4"/>
	</g>
	<g>
		<path class="st0" d="M243.4,414.9l-1.7,2c10.9,10.9-1.7,42.4-2,42.7l-0.3,0.3v0.3c0,0.3,1,2.7,3.3,2.7c2,0,4.6-1.7,8.6-15.2
			C257.7,426.5,243.4,415.2,243.4,414.9"/>
	</g>
</g>
</svg>
