<svg xmlns="http://www.w3.org/2000/svg" width="94" height="94" viewBox="0 0 94 94">
    <g fill="none" fill-rule="evenodd">
        <g fill="#055">
            <g>
                <path d="M599.956 484.695l.231-.188.444.117c.803.21 1.799.471 2.534 1.23l.541.445 1.512 1.277.932.776.68.553.717.57c.733.574 1.51 1.16 2.299 1.71.466.308.873.257 1.41.082l.646-.225c.403-.132.838-.23 1.295-.13.291-.066.59-.161.9-.268l.772-.269c.781-.262 1.632-.49 2.534-.373l.272.046.113.022.096.065c.184.125.468.26.826.404l.383.145.428.15.468.154.764.238.543.161 1.437.41 2.567.713 1.355.387.44.13.855.26c.975.304 1.86.609 2.576.913.711-2.785 1.17-5.672 1.33-8.638l.037-.811h1.54C632.595 509.293 612.536 529 588.005 529c-20.731-.008-39.18-14.62-44.126-34.834l-.145-.614-.315-1.373-2.419.276 2.67-6.178 3.97 5.42-2.711.31.424 1.745c.827 3.396 2.034 6.612 3.556 9.617.546-.4 1.067-.857 1.6-1.343l.401-.37c.706-.653 1.432-1.324 2.243-1.92l.413-.29.2-.136.237.046c.93.18 1.661-.326 2.434-1.019l.928-.854c.463-.416.95-.807 1.503-1.069l.283-.12.283-.105.25.171c.413.283.85.468 1.375.673l.638.246.104.155c.38.565.88.75 1.586.836l.37.036.406.027c.404.024.82.049 1.23.126l.308.07.251.066.12.23c.027.053.055.113.081.177.118.117.23.252.343.394l.17.22c.19.248.403.525.583.666.797.25 1.535.632 2.247 1.023l1.003.55c.75.402 1.484.745 2.251.882.305-.237.631-.447.958-.646l.327-.196c.558-.334 1.133-.678 1.62-1.128l.234-.234.077-.083.102-.048c.179-.086.354-.206.533-.34l.182-.137c.45-.343.957-.728 1.65-.822.458-.223.863-.09 1.154.048l.16.08c.143.073.245.123.324.135l.055.001.166-.022.153.07c.198.09.464.14.749.177l.434.048c.445.045.899.096 1.281.247l.405-.402.85-.858c.742-.742 1.404-1.362 2.01-1.68 1.619-1.54 3.213-2.582 4.863-3.181.982-1.409 2.054-2.499 3.118-3.513l1.295-1.226c1.087-1.038 2.118-2.096 3.041-3.492l.274-.43.201-.326.378.052c.236.033.395.009.54-.084l.072-.052zm.476 1.101c-.313.178-.619.228-.857.234-1.026 1.591-2.192 2.784-3.351 3.89l-.631.598c-1.147 1.078-2.327 2.19-3.384 3.636l-.313.444-.112.162-.184.063c-1.49.509-2.885 1.385-4.363 2.746l-.318.299-.153.105c-.349.167-.802.554-1.289 1.02l-.37.361-1.09 1.096c-.963.964-1.95 1.88-2.936 2.335-.08.038-.162.055-.244.055-.223 0-.436-.129-.535-.346-.135-.298-.005-.649.29-.785.397-.185.824-.49 1.257-.852l-.338-.037c-.382-.04-.773-.079-1.14-.179l-.268-.087c-.32 0-.582-.112-.791-.216l-.1-.052c-.072-.037-.172-.088-.233-.108l-.036-.008-.123.076-.163.025c-.314.024-.588.178-.874.383l-.293.218c-.253.193-.515.392-.819.55-.547.567-1.165.967-1.776 1.336l-.261.157c-.391.233-.765.457-1.095.706l-.24.192-.196.167-.254-.03c-1.084-.131-2.064-.596-3.004-1.103l-.56-.307c-.682-.378-1.383-.767-2.102-1.03l-.36-.12-.149-.068c-.303-.194-.556-.49-.795-.797l-.343-.441c-.066-.082-.13-.157-.187-.217l-.083-.078-.216-.187c-.2-.031-.41-.05-.626-.065l-.717-.045c-.914-.066-1.882-.222-2.62-1.057l-.146-.178-.03-.011c-.585-.226-1.104-.426-1.609-.727-.469.236-.911.62-1.367 1.041l-.53.493-.31.279c-.843.734-1.808 1.37-3.062 1.227-.695.49-1.337 1.058-1.958 1.629l-.37.341c-.714.66-1.451 1.335-2.247 1.902 7.542 13.95 22.137 23.012 38.53 23.018 20.03 0 36.965-13.58 42.234-32.087-.724-.322-1.676-.65-2.742-.98l-.82-.248-.852-.248-1.314-.37-2.58-.719-.95-.272-.88-.265-.545-.172-.505-.17c-.727-.251-1.31-.493-1.697-.729-.679-.112-1.359.064-2.065.3l-.476.165c-.366.128-.741.26-1.121.36l-.382.09-.149.029-.145-.049c-.236-.075-.538.014-.886.137l-.152.055-.273.096c.466.277.927.538 1.376.76l.333.159c.992.45 1.679 1.045 2.18 1.56l.256.273.42.466c.03.033.06.064.089.093.228.233.226.608-.004.839-.231.23-.603.227-.832-.004l-.1-.106-.46-.51c-.46-.501-1.079-1.099-2.03-1.531-2.04-.927-4.272-2.518-6.206-4.046l-.757-.606-.364-.297-1.026-.853-1.768-1.493-.269-.22-.116-.093-.066-.06c-.484-.516-1.203-.72-1.912-.907zm14.077 20.826l-.001 1.949h-.175c-.037-.13-.084-.222-.141-.275-.06-.053-.145-.078-.256-.078l-4.67-.001-.001 1.788 3.031.001c.11 0 .194-.024.251-.077.06-.05.11-.142.143-.274h.175l-.001 1.904h-.175c-.033-.13-.082-.222-.142-.274-.058-.053-.142-.08-.252-.08l-3.031-.001v2.064l4.805.002c.108 0 .192-.026.25-.077.06-.051.108-.144.144-.277h.176l-.001 1.95h-.176c-.036-.133-.083-.225-.144-.277-.057-.05-.141-.076-.25-.076l-6.787-.003v-.177c.132-.036.224-.085.274-.143.05-.059.077-.147.077-.26l.003-6.377c0-.115-.027-.2-.077-.258-.05-.06-.143-.106-.274-.145v-.175l6.652.002c.111 0 .198-.026.256-.08.057-.052.105-.144.141-.275h.176zm-25.808.345l2.332.001v.176c-.129.033-.22.08-.27.141-.054.062-.08.147-.08.262v3.939l.012.317c.011.193.03.349.058.468.048.208.137.382.266.52.351.377.951.565 1.797.565.85 0 1.45-.186 1.8-.564.128-.137.218-.311.263-.52.035-.148.057-.355.066-.62l.006-.344.002-3.76c0-.114-.024-.199-.075-.257-.052-.061-.143-.106-.275-.146v-.175h2.199v.176c-.132.039-.22.085-.273.145-.051.059-.077.143-.077.258l-.002 4.224c0 .799-.145 1.397-.437 1.794-.527.712-1.612 1.07-3.258 1.07-1.19 0-2.099-.194-2.73-.58-.37-.225-.625-.531-.766-.917-.14-.385-.209-.84-.209-1.37l.002-4.223c0-.116-.024-.2-.077-.259-.05-.06-.141-.106-.274-.145v-.176zm9.408.004l4.674.002c.57 0 1.02.032 1.355.098.333.067.624.183.871.35.288.191.505.45.646.777.134.316.202.656.202 1.016-.001 1.17-.61 1.876-1.833 2.123l-.198.035 1.45 2.082.203.281.088.117.152.186.083.088.036.033c.094.085.205.138.335.162l.1.012v.177l-2.7-.001v-.177c.185-.03.279-.096.279-.2 0-.046-.044-.141-.132-.285l-.125-.195-1.512-2.219h-1.997v2.5c0 .11.029.197.081.256.04.046.1.084.182.114l.09.027v.177h-2.333v-.177c.13-.036.222-.085.274-.144.039-.044.063-.102.072-.176l.005-.078.002-6.382c.001-.115-.026-.2-.076-.258-.04-.045-.101-.083-.184-.115l-.09-.03v-.176zm-17.35-.362c.04.135.089.227.144.279.057.05.141.076.252.076l6.263.003c.116 0 .2-.026.258-.077.06-.051.106-.143.142-.278h.177v1.949h-.178c-.036-.134-.081-.226-.142-.277-.058-.05-.141-.075-.257-.076h-2.315l-.002 5.714c0 .113.026.2.076.259.054.06.145.108.275.145v.176l-2.333-.001v-.176c.132-.037.223-.086.277-.145.05-.057.074-.145.074-.259l.002-5.714h-2.317c-.11 0-.198.025-.255.075-.058.05-.106.142-.142.277h-.175v-1.95h.176zm-5.477.353l2.65.001v.176c-.217.063-.322.172-.322.325 0 .081.018.17.057.267l.046.1 2.844 5.808c.12.246.226.414.317.504.068.068.154.12.257.153l.11.028v.176h-2.752v-.178c.242-.04.364-.154.365-.34 0-.06-.021-.139-.063-.238l-.047-.106-.514-1.06h-3.396l-.503 1.059c-.07.145-.105.261-.105.346 0 .14.09.242.27.309l.097.03v.176l-2.471-.001v-.177c.146-.028.257-.081.334-.154.06-.06.13-.163.206-.311l2.808-5.91c.088-.184.13-.333.13-.441 0-.146-.078-.256-.233-.331l-.085-.035v-.176zm-12.525-.005l2.539.002v.175c-.156.041-.233.125-.233.253 0 .09.048.188.151.293l4.12 4.325.002-4.472c0-.11-.025-.193-.077-.251-.05-.062-.142-.108-.274-.146v-.176h2.195v.176c-.132.04-.223.085-.271.146-.053.058-.08.141-.08.252l-.002 6.382c0 .115.027.202.08.26.047.059.139.108.271.144v.176h-2.351v-.177c.15-.034.228-.114.228-.236 0-.063-.062-.164-.185-.301l-4.27-4.45v4.582c0 .114.026.201.076.26.053.058.142.107.273.144v.177l-2.194-.001v-.177c.132-.036.223-.085.274-.145.05-.057.077-.144.077-.259l.002-6.382c0-.11-.027-.194-.077-.252-.05-.06-.142-.107-.274-.146v-.176zm13.795 1.904l-1.233 2.684 2.443.001-1.21-2.685zm23.536-.648v1.976h2.694l.3-.007c.132-.006.235-.014.312-.025.154-.021.295-.067.423-.137.277-.151.416-.425.416-.817 0-.394-.14-.666-.416-.817-.13-.075-.271-.12-.42-.142l-.085-.01-.234-.013-.316-.006-2.674-.002zm5.486-8.467c.873 0 1.566.24 2.08.718.542.5.811 1.144.81 1.935 0 .485-.129.936-.39 1.359-.506.82-1.338 1.229-2.495 1.228-.869 0-1.56-.24-2.071-.715-.274-.255-.484-.56-.627-.917-.124-.314-.186-.644-.186-.99 0-.508.13-.97.387-1.39.494-.803 1.323-1.21 2.492-1.228zm3.756.092l3.136.002c.385 0 .686.022.912.066.224.044.42.122.586.234.193.129.338.303.434.523.088.213.134.439.134.682 0 .774-.4 1.247-1.197 1.419l-.165.03 1.054 1.513.14.187c.063.079.114.136.153.173.06.051.13.086.21.104l.085.011v.12l-1.813-.001v-.12c.123-.02.186-.064.186-.132 0-.021-.013-.058-.04-.108l-.07-.12-.062-.096-1.016-1.49-1.339-.001v1.68c0 .074.017.133.052.172.025.028.06.05.105.07l.077.024v.12h-1.564v-.12c.087-.024.15-.056.182-.095.023-.027.039-.06.046-.103l.006-.068.002-4.288c0-.075-.018-.136-.053-.174-.02-.027-.056-.05-.102-.068l-.08-.026v-.12zm-7.116-.239v1.307h-.118c-.025-.09-.057-.151-.096-.186-.04-.032-.097-.05-.169-.05l-3.11-.001v1.209h2.031c.077 0 .134-.018.173-.053.04-.035.072-.098.097-.185h.119l-.001 1.278h-.118c-.026-.087-.058-.147-.097-.182-.039-.037-.097-.056-.173-.056l-2.032-.001v1.826c0 .078.018.137.054.177.036.042.095.072.18.094v.12l-1.564-.001v-.12c.087-.023.148-.055.184-.095.035-.04.05-.097.05-.175l.002-4.283c0-.075-.016-.136-.05-.174-.037-.039-.096-.071-.185-.094v-.12l4.44.002c.073 0 .13-.017.169-.052.039-.035.072-.097.097-.185h.117zm3.362 1.009c-.478 0-.878.14-1.197.427-.377.34-.566.783-.567 1.332 0 .547.19.99.567 1.33.318.285.721.43 1.202.43.485 0 .883-.145 1.202-.43.188-.17.333-.379.432-.625.088-.221.134-.448.135-.682 0-.573-.19-1.024-.567-1.354-.322-.28-.723-.423-1.207-.428zm5.083.065v1.326h1.832l.228-.006.158-.013c.104-.016.198-.046.284-.094.186-.102.28-.283.282-.55 0-.264-.096-.447-.282-.546-.087-.05-.18-.083-.28-.095l-.097-.01-.06-.004-.231-.007-1.834-.001zm-48.583-49.185c2.126.333 4.257.6 6.384.8 2.072.133 4.198.2 6.33.202 1.474 0 3.298-.127 5.108-.292l1.2-.116 1.173-.121 1.164-.099 3.357-.322.387-.03.19-.01.073-.001c.731 0 1.158.464 1.158 1.196-.002 4.783-8.34 8.171-16.127 8.168-1.984 0-3.867-.29-5.297-.815l-.299-.117-.184 6.048c2.434-1.662 5.173-2.193 7.97-2.191 8.457.003 15.511 4.858 15.507 14.761-.004 10.368-7.974 15.15-16.554 15.146h-.254l-.512-.01c-.171-.005-.344-.012-.517-.02l-.521-.03-.524-.04c-.176-.015-.351-.032-.527-.05l-.527-.063-.528-.074-.527-.086-.525-.098c-.087-.017-.175-.035-.262-.054l-.52-.118c-5.018-1.2-9.461-4.27-9.459-10.726.002-3.19 2.104-6.49 4.863-7.28-.323.56-.496.977-.643 1.37l-.123.333c-.04.11-.082.223-.127.338-1.56 4.43.525 6.6 4.03 7.741l.435.135.45.125c.151.04.305.078.461.115l.473.107.484.099.494.09.502.084.51.076.517.07.26.033.497.059c.332.037.667.071 1.004.103l.507.046c.423.037.848.071 1.273.102l1.432.099 1.855.119 1.35.093.87.069.84.077c1.511.151 2.851.359 3.885.697.3-1.114.395-2.75.234-4.586l-.059-.586c-.893-7.797-6.279-18.48-19.622-8.987-.966-.057-3.231-1.75-4.138-2.776l-.11-.13 1.259-18.673zm2.62 22.803l.072.054c1.837 1.364 4.102 2.323 6.396 3.187l1.059.393 1.283.473.753.285c3.756 1.445 7.327 3.204 9.245 6.581l.181.334.415.8-.632-.64c-2.427-2.455-5.297-4.7-8.329-6.076l-.659-.301-.73-.321-.786-.335-1.237-.517-2.47-1.024-.862-.364-1.011-.438-.657-.296-.572-.27-.334-.166-.297-.155-.259-.146c-.522-.306-.784-.546-.799-.745-.004-.051.005-.141.09-.22l.062-.045.078-.048zm10.328 6.147l.186-.2.06.055.125.133.108.133c.343.45.821 1.365.496 2.722-.274 1.135-.496 1.343-.68 1.363l-.032.002c-.175 0-.268-.173-.297-.24l-.027-.069.047-.135.07-.227.094-.338.068-.275.064-.304c.165-.842.248-1.912-.193-2.513l-.09-.107zm-3.866-1.454l.185-.2.096.09.09.099.052.062.114.15c.334.473.743 1.361.435 2.643-.063.267-.124.483-.183.657l-.086.231c-.154.37-.289.462-.407.475l-.032.002c-.145 0-.234-.12-.277-.2l-.03-.063-.018-.047.07-.207.09-.3.07-.267.073-.307c.189-.866.324-2.062-.153-2.711l-.089-.107zm-4.384-1.599l.18-.205.047.041.115.115c.032.034.067.073.104.118l.117.15c.384.528.863 1.546.444 3.033-.038.134-.074.256-.11.368l-.104.306c-.286.786-.504.903-.668.903-.163 0-.259-.137-.303-.22l-.028-.062-.016-.048.105-.282.108-.318.126-.419c.015-.05.029-.103.043-.157l.084-.335.076-.355c.177-.909.228-1.937-.226-2.524l-.094-.109zM587.994 435c20.732.008 39.18 14.62 44.127 34.834l.145.614.315 1.373 2.419-.276-2.671 6.178-3.969-5.42 2.71-.31-.424-1.744c-4.828-19.833-22.359-33.69-42.635-33.698-23.461 0-42.68 18.634-43.873 41.99l-.03.708h-1.541c.838-24.54 20.897-44.249 45.427-44.249zm-6.889 41.965c.176 0 .227.09.245.144l.009.045c.004.057-.017.125-.108.228l-.096.098-.137.119-.085.068-.21.156-.266.184-.155.104c-1.138.746-2.218.936-2.825.978l-.217.01h-.147l-.117-.005.013-.274c.637 0 1.43-.326 2.132-.702l.372-.208.345-.208.31-.198.263-.177.358-.254.084-.063.053-.024.06-.011c.034-.005.077-.01.12-.01zm32.213-13.507c4.4.002 6.035 3.298 6.033 7.506-.002 4.21-1.638 7.466-6.038 7.464-4.398-.001-6.032-3.259-6.03-7.468 0-4.208 1.637-7.503 6.035-7.502zm-1.194-10.245l2.181.001-15.166 25.209h-2.073l15.058-25.21zm-34.472 21.296c.156 0 .222.064.248.119l.017.053.005.047c-.002.05-.023.11-.089.193l-.081.09-.116.108c-.044.04-.096.082-.155.128l-.2.151-.251.177c-.093.064-.194.132-.306.206-.962.63-1.885.912-2.58 1.035l-.303.046c-.096.013-.185.022-.267.028l-.227.014-.181.003-.204-.006.012-.272c.866 0 1.98-.524 2.873-1.045l.368-.222.333-.212.29-.193.416-.293.144-.107.052-.025.048-.009c.04-.007.097-.014.154-.014zm35.665-8.868c-.895 0-1.517.44-1.833 2.017l-.063.356c-.058.373-.102.8-.132 1.29l-.025.51-.009.27-.01.574v.303c-.001.31.003.601.01.877l.02.53c.003.085.008.168.013.249l.034.467c.026.298.058.57.097.818l.063.353c.303 1.509.893 1.957 1.737 1.987l.095.002c1.088 0 1.774-.624 1.997-3.158l.034-.468.025-.508.008-.27.01-.574.002-.303c0-.31-.004-.602-.01-.878l-.02-.53-.014-.25-.034-.469c-.22-2.544-.906-3.195-1.995-3.195zm-39.542 6.933c.158 0 .228.058.26.12l.02.058.004.045-.008.052-.023.06c-.023.044-.059.095-.115.157l-.1.1c-.02.02-.04.038-.063.058l-.153.128-.195.15-.24.174-.291.199-.166.11c-1.222.802-2.39 1.107-3.2 1.217l-.285.033-.13.011-.228.012-.267.003-.15-.006.012-.273c1.097 0 2.544-.738 3.607-1.389l.378-.238.335-.22.5-.348.22-.162.05-.025.104-.018c.037-.004.08-.008.124-.008zm24.027-19.366c4.398.001 6.032 3.297 6.03 7.505-.002 4.21-1.638 7.465-6.035 7.464-4.398-.002-6.035-3.26-6.033-7.469.002-4.208 1.641-7.502 6.038-7.5zm0 2.182c-.898 0-1.52.44-1.835 2.017l-.063.355c-.039.25-.071.522-.098.822l-.034.468c-.005.082-.01.165-.013.25l-.02.53-.01.574v.607l.01.574c.002.092.004.182.008.27l.024.509.034.467c.22 2.535.903 3.16 1.993 3.16.993 0 1.649-.518 1.924-2.531l.05-.409.038-.447.016-.239.025-.508.009-.27.01-.574v-.304c.001-.309-.003-.6-.01-.877l-.02-.53c-.003-.085-.008-.169-.013-.25l-.034-.469c-.22-2.544-.902-3.195-1.991-3.195z" transform="translate(-701 -2536) translate(160 2101)"/>
            </g>
        </g>
    </g>
</svg>
