<?xml version="1.0" encoding="utf-8"?>
<!-- Uploaded to: SVG Repo, www.svgrepo.com, Generator: SVG Repo Mixer Tools -->
<svg width="800px" height="800px" viewBox="-21.76 0 422.371 422.371" xmlns="http://www.w3.org/2000/svg"><defs><style>.a{fill:#ffffff;}.b{fill:#7a7473;}.c{fill:#211715;}.d{fill:#5394cf;}</style></defs><path class="a" d="M282.7,370.764c2.356-25.41,3.528-42.592,5.3-62.108,1.223-13.486,4.029-26,5.527-35.729,10.747,8.111,20.933,16.41,31.726,24.506-2.906,2.174-1.214,6.58,1.242,6.69a39.861,39.861,0,0,1-3.656,9.078,5.969,5.969,0,0,1,3.11.341c13.6,4.032,31.2,5.421,46.016,5.374,3.62-8.3,5.547-15.671,3.888-24.41-1.591-8.376-6.819-15.542-12.031-22.289-13.648-17.667-28.18-34.645-43.418-50.96-7.016-7.512-14.251-14.941-22.765-20.7-16.54-11.185-34.428-14.7-54.01-18.6L217.5,186.964l-9.351.076-9.351-.076-31.4-5.007c-15,5.977-28.8,9.105-42.3,17.955-7.236,4.741-13.247,11.74-17.723,19.142-2.122,3.509-5.171,12.19-6.607,16.031-1.867,5-5.829,14.145-8.607,19.708-7.207,2.353-32.079,10.165-43.482,13.519,3.329,15,2.1,16.408,10,34.1,3.117,6.98,6.326,14.531,10.959,20.611s9.443,8.572,17.087,8.572c8.848,0,18.679-5.376,25.067-11.937a207.138,207.138,0,0,0,15.174-19.236l.435-.478c.29,3.352.558,6.651.788,9.835,1.941,26.916,2.559,58.06,3.425,82.042H282.667Z"/><path class="a" d="M245.932,184.582c.042-.364-3.547-1.561-3.891-1.685-5.2-1.878-5-5.221-5.65-8.961a71.671,71.671,0,0,1-1.14-14.039,51.652,51.652,0,0,0,13.662-11.823,57.377,57.377,0,0,0,10.938-21.352l2.155-.329a14.223,14.223,0,0,0,6.614-2.981,21.444,21.444,0,0,0,5.546-7.28,33.735,33.735,0,0,0,3.441-17.889,11.253,11.253,0,0,0-1.179-4.531,7.966,7.966,0,0,0-5.727-3.807,8.437,8.437,0,0,0-6.75,1.975,31.148,31.148,0,0,0-.027-3.357c-.57-10.753-9.283-42.952-57.49-42.952-57.624,0-55.694,46.309-55.694,46.309a8.437,8.437,0,0,0-6.75-1.975,7.964,7.964,0,0,0-5.727,3.807,11.271,11.271,0,0,0-1.18,4.531,33.746,33.746,0,0,0,3.442,17.889,21.444,21.444,0,0,0,5.546,7.28,14.224,14.224,0,0,0,6.613,2.981l1.133.175c.542,2.031,1.152,3.742,1.451,4.65,1.823,4.947,11.573,21.415,24.112,28.758a71.951,71.951,0,0,1-1.144,13.96c-.655,3.74-.45,7.083-5.65,8.961-.344.124-3.934,1.321-3.891,1.685,0,0,10.416,17.662,40.638,17.662S245.932,184.582,245.932,184.582Z"/><path class="b" d="M165.262,25.585c-8.167,3.354-18.531,13.082-22.255,23.494-5.3,14.809-4.682,30.418-.489,41.188a8.179,8.179,0,0,1,1.472-.362,8.364,8.364,0,0,1,7.017,2.235c4.3-9.007,7.952-23.062,16.3-30.242,4.712-4.054,12.81-3.655,18.386-4.875l10.271-.594c22.094-3.5,32.378,6.383,47.627,9.356,3.165.617,8.547-.225,11.218,1.582,3.812,2.579,2.974,5.708,3.5,10.281.632,5.5,1.324,10.576,4.814,15.135a8.277,8.277,0,0,1,9.5-2.347c4.836-11.133,7.163-22.3,3.653-34.207-2.609-8.855-9.044-19.236-14.469-26.706-6.56-9.032-12.592-15.22-22.152-20.982-10.871-6.552-25.4-7.121-37.932-5.123-9.35,1.491-25.23,8.6-30.334,17.646Z"/><path class="c" d="M265.648,93.577a5.961,5.961,0,0,1,8.323.737c1.215,1.553,1.283,3.841,1.342,5.718a30.187,30.187,0,0,1-.383,6.058c-1.285,7.465-5.244,16.568-13.562,17.988a2.421,2.421,0,0,0-1.676,2.953,2.455,2.455,0,0,0,2.952,1.676c8.453-1.443,13.481-9.367,15.86-16.971a35.553,35.553,0,0,0,1.568-12.6c-.244-4.173-1.449-8.112-5.286-10.307a10.935,10.935,0,0,0-12.532,1.353,2.421,2.421,0,0,0,0,3.394,2.449,2.449,0,0,0,3.394,0Z"/><path class="c" d="M259.52,120.112a28.715,28.715,0,0,1-1.385,7.309c-.259.863-.543,1.718-.83,2.573q-.127.376-.259.751c-.034.1-.079.193-.115.291-.152.412.236-.516.026-.063a60.919,60.919,0,0,1-3.7,6.771,67.257,67.257,0,0,1-15.081,17.4,28.682,28.682,0,0,1-11.137,5.629c-3.009.69-1.735,5.319,1.276,4.628,8.355-1.917,15.357-7.917,20.884-14.2a73.088,73.088,0,0,0,11.718-17.379,36.691,36.691,0,0,0,3.4-13.7c.1-3.089-4.7-3.086-4.8,0Z"/><path class="c" d="M152.437,90.183A10.892,10.892,0,0,0,141.5,88.094c-4.124,1.6-6.2,5.031-6.727,9.3a34.555,34.555,0,0,0,6.039,23.863,17.927,17.927,0,0,0,11.231,7.448A2.471,2.471,0,0,0,155,127.031a2.421,2.421,0,0,0-1.677-2.953c-8.318-1.42-12.277-10.523-13.561-17.988a30.256,30.256,0,0,1-.383-6.058c.058-1.885.134-4.155,1.342-5.718a5.956,5.956,0,0,1,8.322-.737,2.464,2.464,0,0,0,3.4,0,2.421,2.421,0,0,0,0-3.394Z"/><path class="c" d="M150.71,119.265a67.714,67.714,0,0,0,8.633,23.941c4.893,7.971,11.968,15.18,20.3,19.541a39.3,39.3,0,0,0,14.281,4.3,2.416,2.416,0,0,0,2.4-2.4,2.454,2.454,0,0,0-2.4-2.4c-17.015-1.759-30.25-17.017-35.573-32.351a75.634,75.634,0,0,1-3.013-11.9,2.42,2.42,0,0,0-2.952-1.676,2.454,2.454,0,0,0-1.676,2.952Z"/><path class="c" d="M164.624,23.271c-8.488,3.549-15.783,10.467-20.585,18.244a47.11,47.11,0,0,0-5.56,14.582,68.153,68.153,0,0,0-1.659,16.331,57.352,57.352,0,0,0,2.641,16.406c.95,2.925,5.586,1.674,4.629-1.276a57.147,57.147,0,0,1-1.446-27.932,47.316,47.316,0,0,1,4.465-13.837,42.879,42.879,0,0,1,8.028-10.37A36.538,36.538,0,0,1,165.9,27.9a2.479,2.479,0,0,0,1.676-2.952,2.415,2.415,0,0,0-2.952-1.676Z"/><path class="c" d="M274.744,91.532a65.246,65.246,0,0,0,5.416-19.51,43.832,43.832,0,0,0-2.546-19.351,89.6,89.6,0,0,0-8.3-16.324A130.5,130.5,0,0,0,258.8,21.769c-7.223-8.617-16.74-16.274-27.65-19.5A60.594,60.594,0,0,0,213.057.01a65.482,65.482,0,0,0-16.12,2.008A62.562,62.562,0,0,0,181.27,8.746c-4.637,2.794-9.211,6.346-11.956,11.107-1.545,2.681,2.6,5.1,4.145,2.422,2.149-3.727,5.709-6.544,9.329-8.827a58.056,58.056,0,0,1,12.7-5.975,54.531,54.531,0,0,1,13.458-2.486,62.574,62.574,0,0,1,17,.922c10.464,2.164,19.483,8.394,26.7,16.119a103.3,103.3,0,0,1,10.018,12.888,108.876,108.876,0,0,1,8.684,15.1,42.481,42.481,0,0,1,4.206,18.9c-.169,6.981-2.209,13.813-4.95,20.192a2.479,2.479,0,0,0,.861,3.283,2.417,2.417,0,0,0,3.284-.861Z"/><path class="c" d="M185.051,54.709c-6.878,1.457-14.41.874-19.954,5.944-5.468,5-8.609,12.08-11.386,18.8-1.458,3.527-2.781,7.112-4.361,10.588a2.472,2.472,0,0,0,.861,3.283,2.419,2.419,0,0,0,3.284-.861c2.827-6.217,4.941-12.743,8.093-18.815a36.848,36.848,0,0,1,5.443-8.145,14.364,14.364,0,0,1,7.989-4.445c3.73-.821,7.572-.928,11.307-1.72,3.02-.639,1.742-5.267-1.276-4.628Z"/><path class="c" d="M196.6,58.744a50.711,50.711,0,0,1,17.942.3,89.649,89.649,0,0,1,14.1,4.5,88.716,88.716,0,0,0,13.686,4.435c2.746.574,5.513.393,8.289.634,2.09.181,4.051,1.032,4.655,2.973a14.27,14.27,0,0,1,.44,3.558c.1,1.72.291,3.425.517,5.133a32.324,32.324,0,0,0,3.288,11.386c1.47,2.718,5.616.3,4.144-2.423a27.737,27.737,0,0,1-2.744-9.83c-.366-2.891-.179-6.01-.94-8.832a9.04,9.04,0,0,0-5.546-6.041c-2.747-1.024-5.839-.766-8.716-.918-4.616-.245-9.663-2.349-14.1-4.049a110.319,110.319,0,0,0-14.5-4.867,57.14,57.14,0,0,0-21.793-.582,2.417,2.417,0,0,0-1.676,2.952,2.459,2.459,0,0,0,2.952,1.677Z"/><path class="c" d="M197.582,137.053a22.163,22.163,0,0,0,10.679,2.463c3.784-.024,7.653-.75,10.69-3.116a2.414,2.414,0,0,0,0-3.4,2.462,2.462,0,0,0-3.394,0c.7-.546.063-.063-.116.052q-.328.21-.674.39c-.144.076-.916.413-.35.186-.306.123-.615.237-.929.338a16.544,16.544,0,0,1-5.577.745,17.243,17.243,0,0,1-5.323-.717c-.341-.1-.673-.223-1.008-.338-.11-.038-.215-.093-.325-.127.58.176.128.058-.015-.009q-.625-.294-1.235-.617a2.453,2.453,0,0,0-3.284.861,2.427,2.427,0,0,0,.861,3.284Z"/><path class="c" d="M207.237,111.643a51.047,51.047,0,0,1,1.2,5.5l-.085-.638a3.332,3.332,0,0,1,.02.76l.086-.638a1.837,1.837,0,0,1-.084.342l.242-.574a1.376,1.376,0,0,1-.12.22l.375-.485a1.205,1.205,0,0,1-.18.177l.486-.375a3.553,3.553,0,0,1-.436.23l.573-.242a3.146,3.146,0,0,1-.735.215l.638-.086a2.9,2.9,0,0,1-.69,0l.638.086c-.26-.037-.515-.1-.775-.135a2.655,2.655,0,0,0-1.849.242,2.4,2.4,0,0,0-.861,3.284,2.3,2.3,0,0,0,1.434,1.1c.554.074,1.093.217,1.656.241a5.206,5.206,0,0,0,2.393-.562,3.364,3.364,0,0,0,1.892-2.227,5.753,5.753,0,0,0-.027-2.447c-.3-1.774-.709-3.531-1.165-5.271a2.4,2.4,0,0,0-4.629,1.276Z"/><path class="c" d="M177.721,96.165c-.92,2.988-.32,9.86,5.34,10.445,7.48-.045,7.878-8.354,5.36-12.261C186.359,91.151,180.3,89.82,177.721,96.165Z"/><path class="c" d="M237.626,96.165c.919,2.988.32,9.86-5.339,10.445-7.481-.045-7.88-8.354-5.362-12.261C228.987,91.151,235.05,89.821,237.626,96.165Z"/><path class="a" d="M318.758,332.55c-6.253,15.7-11.084,31.29-12.565,35.009a6.409,6.409,0,0,1-6.263,5.009c-7.368.678-10.161.6-12.757-.306a46.247,46.247,0,0,0-7.4-2.192c-3.906-.738-9.487-.264-14.234.806a55.46,55.46,0,0,0-12.456,4.367c-2.946,1.578-4.475,3.112-3.724,6.065a3.893,3.893,0,0,0,4.366,3.18c3.685-.194,14.7-3.176,17.485-2.091-7.289,3.643-13.906,6.708-20.443,10.95a6.537,6.537,0,0,0-3.174,5.01c-.162,3.143,3.193,5.421,6.26,4.719a33.877,33.877,0,0,0,7.755-3.146l-2.746,2.023c-2.312,1.7-3.408,6.532-1.814,8.144,2.391,2.418,7.516,1.756,9.8.813,1.033-.426,10.826-4.6,17.285-7.34l-.677.482c-11.06,7.929-4.526,3.246-7.041,5.048-2.33,1.671-4.886,3.736-5.025,6.6a3.243,3.243,0,0,0,.677,2.276,6.663,6.663,0,0,0,3.1,1.956c3.323.24,7.086-2.034,11.4-5.137,2.071-1.488,6.622-5.015,9.143-5.393a16.761,16.761,0,0,1,3.011-.059,18.53,18.53,0,0,0,5.524-1.611c2.109-1.2,5.059-3.187,6.456-5.173,12.148-17.263,25.84-38.243,37.989-55.507"/><path class="a" d="M40.221,221.946a5.884,5.884,0,0,1,3.075,2.313c2.152,4.375,4.546,30.04,5.067,31.686,0,0,.22.695.564,1.811a10.33,10.33,0,0,0,2.805,1c4.593,1.086,17.93-1.344,26.108-7.844a33.594,33.594,0,0,0,6.508-6.96l-.233-.827c-1.785-6.325-9.136-20.36-10.225-26.842a52.747,52.747,0,0,1-.881-14.5c.676-6.093,3.17-12.052,2.521-18.148-.365-3.424-3.845-9.64-5.355-13.016-3.366-6.137-8.968,1.93-10.2,4.748.135,13.329.026,26.731-2.645,39.777-.2,1.247-1.463,1.91-2.779,2.148-3.937.443-9.668.824-14.872,1.116Z"/><path class="c" d="M67.946,171.473c1.7,3.895,4.154,7.628,5.1,11.81,0,.008.154.852.085.352.041.3.057.611.074.913a21.6,21.6,0,0,1,0,2.276,31.928,31.928,0,0,1-.664,4.8c-.637,3.16-1.442,6.276-1.851,9.479a41.737,41.737,0,0,0,.037,9.884,51.07,51.07,0,0,0,1.275,7.826,94.521,94.521,0,0,0,4.733,12.324A108.565,108.565,0,0,1,81.8,243.762c.852,2.964,5.485,1.7,4.628-1.276-2.364-8.217-6.927-15.663-9.467-23.831a38.943,38.943,0,0,1-1.318-6.705,42.447,42.447,0,0,1-.235-10.167c.707-6.143,3.244-12.108,2.491-18.384-.613-5.112-3.789-9.71-5.809-14.348a2.415,2.415,0,0,0-3.284-.861,2.461,2.461,0,0,0-.861,3.283Z"/><path class="c" d="M15.686,204.356A63.314,63.314,0,0,0,29.648,218.57a45.756,45.756,0,0,0,6.865,4.351c1,.5,2.036.912,3.07,1.34.64.264-.44-.252.35.167a4.675,4.675,0,0,1,.82.489,2.242,2.242,0,0,1,.313.279c.209.266.268.8.083.082a96.932,96.932,0,0,1,2,9.5c.654,4.268,1.143,8.232,1.677,12.617.233,1.914.459,3.83.7,5.743a22.242,22.242,0,0,0,.518,3.445c.875,2.955,5.509,1.7,4.628-1.276a6.455,6.455,0,0,1-.154-.793c-.036-.227-.067-.454-.1-.681-.02-.135-.037-.27-.056-.405.111.794.006.038-.014-.125-.21-1.642-.408-3.285-.608-4.928-.549-4.519-1.1-9.039-1.768-13.543a61.749,61.749,0,0,0-1.99-10.242,7.774,7.774,0,0,0-4.931-4.882,36.3,36.3,0,0,1-6.024-3.2,56.325,56.325,0,0,1-15.2-14.573,2.464,2.464,0,0,0-3.283-.861,2.421,2.421,0,0,0-.861,3.284Z"/><path class="a" d="M19.979,138.444q-2.94.143-5.879.3c1.508,25.5,5.648,50.771,9.922,75.958.448,2.638,1.448,4.443,3.2,4.326,1.205-.08,18.636-.757,27.327-1.735,1.316-.238,2.575-.9,2.779-2.148,2.938-14.352,2.776-29.134,2.6-43.782-.055-4.618-.35-31.162-1.5-34.109-.624-.61-1.995-.369-2.867-.348C43.7,137.182,31.837,137.865,19.979,138.444Z"/><path class="a" d="M23.771,213.222q.126.739.251,1.479c.448,2.638,1.448,4.443,3.2,4.326,1.205-.08,18.636-.757,27.327-1.735,1.316-.238,2.575-.9,2.779-2.148,2.938-14.352,2.776-29.134,2.6-43.782-.017-1.375-.035-3.968-.095-7.447-.019-1.087-.041-2.261-.069-3.511-.03-1.317-43.861-.474-43.718.806C18,178.619,20.843,195.94,23.771,213.222Z"/><path class="c" d="M62.084,159.766c-.366-2.451-4.477-2.2-6.222-2.28-3.556-.158-7.121-.157-10.68-.141-8.118.037-16.268.16-24.368.743-2.2.158-7.1-.116-7.162,3.122-.055,3.089,4.745,3.09,4.8,0a2.333,2.333,0,0,1-1.108,1.971c.26-.154-.417.381-.449.185a1.879,1.879,0,0,1,.291-.084c.286-.033,1.471-.192.493-.1,1.127-.1,2.25-.23,3.38-.31,3.385-.236,6.778-.365,10.168-.472,7.522-.237,15.065-.381,22.589-.182,1.354.035,2.711.077,4.061.192.231.019.462.051.693.068.488.035-.663-.223-.028,0a1.258,1.258,0,0,0,.364.086c-.443.156-1.4-1.174-1.451-1.522a2.417,2.417,0,0,0,2.953,1.676,2.461,2.461,0,0,0,1.676-2.952Z"/><path class="d" d="M208.148,187.04l-9.351-.076a3.132,3.132,0,0,0-3.155,3.168c.033,2.856.159,5.65.174,9.056a3.129,3.129,0,0,0,.224,1.167c1.276,3.143,2.889,6.622,3.812,9.6a3.036,3.036,0,0,1,.124,1.129c-.95,12.919-11.276,123.089-12.48,138.4a3.648,3.648,0,0,0,.919,2.471c4.672,6.144,11.318,13.607,16.635,19.261a4.077,4.077,0,0,0,3.1,1.415,3.571,3.571,0,0,0,3.1-1.415c5.467-6.077,11.932-12.845,16.635-19.261a3.731,3.731,0,0,0,.919-2.471c-1.2-15.307-11.53-125.477-12.48-138.4a3.036,3.036,0,0,1,.124-1.129c.923-2.976,2.537-6.455,3.812-9.6a3.15,3.15,0,0,0,.225-1.167c.014-3.406.141-6.2.173-9.056a3.132,3.132,0,0,0-3.155-3.168Z"/><path class="c" d="M19.979,136.044q-1.88.091-3.759.188c-1.292.067-2.614.03-3.6,1.012-1.014,1.014-.873,2.379-.788,3.686q.135,2.089.294,4.179.6,7.986,1.5,15.945c1.173,10.5,2.662,20.971,4.3,31.412q1.243,7.918,2.58,15.823c.436,2.595.756,5.25,1.342,7.816a7.153,7.153,0,0,0,2.977,4.739c1.6.949,3.9.51,5.673.428q4.6-.213,9.2-.465c3.556-.2,7.112-.421,10.662-.715,3.707-.308,8.441-.273,9.376-4.783,2.117-10.208,2.6-20.733,2.665-31.13.079-12.27-.1-24.592-.641-36.85-.106-2.382-.22-4.767-.452-7.14-.215-2.2-.238-4.845-2.832-5.561a8.338,8.338,0,0,0-2.637-.135c-1.327.062-2.657.071-3.984.111q-4.08.123-8.158.294c-5.274.219-10.546.483-15.818.75q-3.953.2-7.906.4c-3.075.15-3.093,4.951,0,4.8,6.59-.323,13.178-.676,19.769-.974q4.819-.218,9.64-.387,2.474-.084,4.945-.148c.657-.017,1.31-.039,1.966-.07.531-.025.725-.092.925.06l-1.1-1.434a7.284,7.284,0,0,1,.264,1.161c.069.358.021.165-.012-.115.018.146.038.292.054.438.043.389.084.778.12,1.167.171,1.871.274,3.749.365,5.626.229,4.743.351,9.492.45,14.239.232,11.216.514,22.472.006,33.681-.189,4.175-.508,8.346-1.033,12.493-.245,1.939-.552,3.871-.9,5.793a7.939,7.939,0,0,1-.389,2.209c-.218.313-.829.335-1.125.378-5.363.779-10.9.873-16.312,1.161q-3.547.189-7.1.35l-2.2.1a3.893,3.893,0,0,0-1.208.056c-.159.09.028-.045.206.117a1.126,1.126,0,0,1-.25-.3,5.584,5.584,0,0,1-.605-1.805c-.435-2.036-.712-4.117-1.057-6.169q-1.044-6.2-2.05-12.41c-2.686-16.66-5.049-33.385-6.355-50.216q-.123-1.6-.235-3.195-.051-.738-.1-1.476c-.018-.264.043-1.529-.259-1.023l-.861.861q-.5.1-.017.056l.7-.037,1.175-.06,2.584-.128C23.054,140.693,23.072,135.892,19.979,136.044Z"/><path class="c" d="M176.987,162.309a70.663,70.663,0,0,1-.92,10.133c-.183,1.109-.345,2.223-.532,3.332-.079.468-.168.935-.288,1.4-.059.225-.126.445-.2.666-.215.667.2-.352-.1.277a3.681,3.681,0,0,1-1.476,1.709,10.632,10.632,0,0,1-2.195,1c-1.611.566-4.432,1.183-4.9,3.127-.716,3,3.911,4.284,4.629,1.276l.011-.046-.618,1.059c.138-.176-.541.219-.167.133a3.586,3.586,0,0,0,.555-.269q.225-.1-.082.034l.318-.125c.216-.081.43-.165.645-.245.743-.274,1.5-.516,2.229-.815a9.483,9.483,0,0,0,5.5-5.118,28.861,28.861,0,0,0,1.367-6.539,79.4,79.4,0,0,0,1.022-10.98c.061-3.09-4.739-3.09-4.8,0Z"/><path class="c" d="M232.839,162.309a79.55,79.55,0,0,0,1.022,10.98,28.82,28.82,0,0,0,1.368,6.539,9.48,9.48,0,0,0,5.5,5.118c.7.285,1.414.517,2.122.776.215.079.43.159.644.242.114.044.651.267.251.092a4.689,4.689,0,0,0,.579.273c.472.128-.157-.17-.1-.1l-.617-1.059.011.046c.716,3,5.346,1.732,4.628-1.276-.463-1.943-3.284-2.561-4.9-3.127a10.489,10.489,0,0,1-2.2-1,3.713,3.713,0,0,1-1.475-1.709c-.217-.446.058.241-.1-.277-.069-.222-.139-.442-.2-.666-.12-.46-.209-.927-.288-1.4-.188-1.109-.35-2.223-.533-3.332a70.951,70.951,0,0,1-.92-10.133c-.06-3.085-4.861-3.095-4.8,0Z"/><path class="c" d="M242.986,184.271c12.277,2.445,24.665,4.846,36.365,9.42a87.282,87.282,0,0,1,16.341,8.451A101.254,101.254,0,0,1,310.939,214.9c9.829,9.736,19.025,20.186,28.045,30.669s18,21.119,26.113,32.315c4.107,5.669,7.775,11.836,8.706,18.9.958,7.268-1.048,14.312-3.916,20.929a2.478,2.478,0,0,0,.861,3.284,2.417,2.417,0,0,0,3.283-.861c2.732-6.3,4.918-12.877,4.815-19.829a38.405,38.405,0,0,0-5.8-19.127c-3.526-5.918-7.981-11.291-12.245-16.683q-6.677-8.442-13.615-16.672c-9.36-11.11-19.015-22.01-29.085-32.483-9.348-9.724-19.56-18.294-31.918-23.925-13.306-6.064-27.661-8.927-41.92-11.766a2.461,2.461,0,0,0-2.952,1.676,2.422,2.422,0,0,0,1.676,2.952Z"/><path class="c" d="M293.116,275.608c10.381,7.87,20.5,16.075,30.92,23.9a2.415,2.415,0,0,0,3.284-.861,2.457,2.457,0,0,0-.861-3.283c-10.418-7.822-20.54-16.027-30.92-23.9a2.416,2.416,0,0,0-3.284.861,2.46,2.46,0,0,0,.861,3.284Z"/><path class="c" d="M353.883,285.513l-13.34,3.918c-4.175,1.227-8.48,2.258-12.564,3.762-3.227,1.188-6.266,3.055-6.626,6.733a5.919,5.919,0,0,0,5.137,6.6l-2.314-3.038A31.791,31.791,0,0,1,320.76,312c-1.576,2.664,2.572,5.082,4.145,2.422a36.328,36.328,0,0,0,3.9-9.657,2.44,2.44,0,0,0-2.314-3.038c.5.049.2.133-.025-.174a.883.883,0,0,1-.2-.345c-.072-.171-.013.022-.092-.29a1.918,1.918,0,0,1-.022-.76,2.077,2.077,0,0,1,.536-.814c.085-.091.941-.847.518-.534-.243.18.261-.165.321-.2a11.181,11.181,0,0,1,1.73-.786c1.616-.6,3.29-1.037,4.942-1.522l20.962-6.158c2.957-.869,1.7-5.5-1.276-4.628Z"/><path class="a" d="M376.372,318.859c-15.619.359-35.45-.877-50.428-5.317-1.189-.353-2.517-.71-3.621-.147a4.866,4.866,0,0,0-1.754,1.957l-6.22,10.219a4.088,4.088,0,0,0-.855,2.644c.179,1.124,1.232,1.867,2.2,2.468a192.1,192.1,0,0,0,34.635,16.984,8.018,8.018,0,0,0,4.474.717,7.846,7.846,0,0,0,3.671-2.532,91.043,91.043,0,0,0,17.9-26.993"/><path class="c" d="M376.372,316.459a213.6,213.6,0,0,1-30.833-1.44,127.441,127.441,0,0,1-14.794-2.667c-2.368-.582-5-1.795-7.457-1.627-3.236.222-4.593,3.091-6.087,5.545q-2.332,3.832-4.665,7.664c-1.508,2.487-2.2,5.308.193,7.525,1.95,1.806,4.592,3.05,6.879,4.376q3.58,2.076,7.251,4,7.614,3.986,15.557,7.281c2.545,1.064,5.108,2.109,7.709,3.028,2.847,1.007,5.649,1.032,8.126-.854a39.682,39.682,0,0,0,5.977-6.261q2.914-3.478,5.5-7.218a91.978,91.978,0,0,0,8.713-15.737,2.478,2.478,0,0,0-.861-3.283,2.417,2.417,0,0,0-3.283.861,89.71,89.71,0,0,1-15.457,24.279c-.761.847-1.531,1.69-2.331,2.5a4.9,4.9,0,0,1-2.348,1.643,6.637,6.637,0,0,1-3.2-.717c-1.3-.475-2.583-.974-3.866-1.482q-6.982-2.763-13.719-6.1-7.012-3.461-13.73-7.482c-1.016-.609-2.06-1.2-3.04-1.863-.6-.41-.855-.44-.5-1.11,1.294-2.445,2.89-4.771,4.328-7.133q1.036-1.7,2.073-3.407c.517-.845.619-1.376,1.572-1.24a26.588,26.588,0,0,1,3.087.85q1.727.469,3.469.875a140.534,140.534,0,0,0,14.044,2.45,212.105,212.105,0,0,0,31.688,1.548c3.084-.068,3.095-4.868,0-4.8Z"/><path class="c" d="M272.157,379.236c-4.727,2.4-9.522,4.663-14.206,7.147-2.2,1.169-4.381,2.39-6.507,3.7-2.067,1.272-4.178,2.584-5.314,4.825a7.2,7.2,0,0,0,4.787,10.486c2.389.53,4.707-.2,6.919-1.077a62.145,62.145,0,0,0,6.894-3.347,128.8,128.8,0,0,1,16.434-7.78,2.466,2.466,0,0,0,1.676-2.952,2.419,2.419,0,0,0-2.952-1.676,125.159,125.159,0,0,0-13.145,5.9c-3.93,2.025-7.735,4.526-11.972,5.876-1.295.412-2.614.778-3.816-.066a2.273,2.273,0,0,1-.6-3.1c.874-1.688,2.908-2.588,4.46-3.518,1.886-1.131,3.809-2.2,5.753-3.225,4.622-2.444,9.35-4.68,14.012-7.044,2.755-1.4.329-5.541-2.423-4.145Z"/><path class="c" d="M257.161,400.256a9.7,9.7,0,0,0-3.042,9.319c1.024,3.781,5.6,4.8,9.01,4.549a20.566,20.566,0,0,0,6.689-1.884q3.965-1.68,7.924-3.367,5.02-2.135,10.04-4.267a2.415,2.415,0,0,0,.861-3.284,2.465,2.465,0,0,0-3.284-.861q-7.635,3.241-15.266,6.489-1.392.593-2.785,1.182c-.17.072-1.089.46-.732.31.385-.162-.209.09-.344.144-2.008.795-4.917,1.311-6.894.242-.249-.135-.375-.3-.6-.428.109.062.17.4.006-.029.1.247.043.087,0-.072a5.026,5.026,0,0,1-.006-1.308,5.1,5.1,0,0,1,1.814-3.341,2.414,2.414,0,0,0,0-3.394,2.46,2.46,0,0,0-3.395,0Z"/><path class="c" d="M346.621,345.84c-10.409,14.8-20.364,29.911-30.59,44.836-2.432,3.549-4.738,7.29-7.4,10.671a15.785,15.785,0,0,1-8.6,5.3c-1.826.424-3.711.058-5.529.569a17.229,17.229,0,0,0-4.449,2.2c-3.172,2.027-6.05,4.482-9.325,6.355-1.466.839-3.478,1.992-5.25,1.772.148.018-.189-.083-.357-.175a5.14,5.14,0,0,1-.811-.558,1.149,1.149,0,0,1-.488-1.344c.378-2.136,2.807-3.583,4.437-4.753a2.468,2.468,0,0,0,.861-3.283,2.419,2.419,0,0,0-3.284-.861l-.323.231,2.423,4.145q3.361-2.413,6.727-4.823a2.468,2.468,0,0,0,.861-3.284,2.418,2.418,0,0,0-3.283-.861q-3.364,2.412-6.728,4.823a2.469,2.469,0,0,0-.861,3.284,2.42,2.42,0,0,0,3.284.861l.323-.232-2.423-4.144a20.748,20.748,0,0,0-5.485,5.01,7.269,7.269,0,0,0-1.039,6.293,7.636,7.636,0,0,0,4.5,4.163c1.787.681,4.012.208,5.749-.431a29.46,29.46,0,0,0,6.234-3.353c3.058-2.064,5.971-4.788,9.406-6.218a3.7,3.7,0,0,1,1.5-.319,23.752,23.752,0,0,0,3.765-.262,17.438,17.438,0,0,0,5.583-2,26.559,26.559,0,0,0,5.314-3.99,40.855,40.855,0,0,0,4.087-5.526c5.643-8.113,11.168-16.307,16.7-24.495,6.148-9.1,12.292-18.2,18.609-27.183a2.421,2.421,0,0,0-.861-3.284,2.45,2.45,0,0,0-3.283.861Z"/><path class="c" d="M316.443,331.912c-3.825,9.629-7.2,19.42-10.533,29.229-.483,1.424-.964,2.849-1.469,4.266-.452,1.268-.881,3.064-1.989,3.887-1.65,1.226-4.491,1.064-6.429,1.189a37.6,37.6,0,0,1-5.474.062c-.121-.009-1.108-.144-.536-.05-.259-.042-.517-.088-.774-.144a19.576,19.576,0,0,1-2.267-.7,41.838,41.838,0,0,0-6.9-1.959,39.218,39.218,0,0,0-15.256.889,56.133,56.133,0,0,0-12.19,4.2c-1.89.945-3.9,2.123-5.007,3.991a7.131,7.131,0,0,0-.016,6.662c2.163,4.542,7.287,3.433,11.251,2.7,2.174-.4,4.342-.837,6.526-1.182.934-.148,1.634-.246,2.595-.324.453-.037.908-.064,1.363-.065.19,0,1.337.1.661,0a2.478,2.478,0,0,0,2.952-1.676,2.417,2.417,0,0,0-1.676-2.952c-3.487-.52-7.133.346-10.555.982-1.748.325-3.493.676-5.248.963a9.575,9.575,0,0,1-1.574.2,5.508,5.508,0,0,1-.961,0c.31.036-.116-.033-.15-.042-.443-.118-.03.089-.425-.164a2.422,2.422,0,0,1-.769-1.536,1.516,1.516,0,0,1,.274-1.308c1.131-1.42,3.31-2.229,4.924-2.916a53.943,53.943,0,0,1,11.888-3.418,29.8,29.8,0,0,1,13.652.461c1.828.543,3.593,1.344,5.449,1.781a20.033,20.033,0,0,0,4.249.474c2.016.033,4.036-.116,6.044-.281,2.6-.214,5.378-.5,7.481-2.207,2.488-2.025,3.355-5.727,4.363-8.672,3.563-10.413,7.093-20.832,11.158-31.064a2.416,2.416,0,0,0-1.676-2.952,2.458,2.458,0,0,0-2.953,1.676Z"/><path class="c" d="M291.927,266.514c-.532,5.989-1.749,11.912-2.808,17.823-1.359,7.585-2.623,15.194-3.386,22.866-1.27,12.778-2.171,25.6-3.234,38.4q-1.046,12.588-2.2,25.166a2.417,2.417,0,0,0,2.4,2.4,2.451,2.451,0,0,0,2.4-2.4c1.3-13.986,2.434-27.985,3.58-41.984q.77-9.4,1.6-18.8c.678-7.547,1.814-15.018,3.135-22.477,1.234-6.966,2.691-13.937,3.317-20.992a2.418,2.418,0,0,0-2.4-2.4,2.45,2.45,0,0,0-2.4,2.4Z"/><path class="c" d="M121.222,255.02c.741,17.048,2.942,34.017,4.282,51.022,1.471,18.684,2.139,37.428,2.747,56.156.321,9.874.6,19.749.96,29.622.111,3.08,4.911,3.094,4.8,0-.653-18.146-1.09-36.3-1.88-54.441-.8-18.428-2.239-36.771-3.961-55.132-.85-9.061-1.752-18.132-2.148-27.227-.133-3.077-4.934-3.094-4.8,0Z"/><path class="c" d="M166.764,179.643c-15.463,6.137-32.487,10.04-45.9,20.362a62.212,62.212,0,0,0-15.731,18.132c-3,5.216-4.732,11.2-6.861,16.8a188.521,188.521,0,0,1-8.878,20c-1.424,2.737,2.717,5.167,4.145,2.423,3.068-5.9,5.706-12.052,8.2-18.21,2.19-5.4,3.915-11,6.37-16.3a53.873,53.873,0,0,1,13.1-16.952c5.965-5.305,13.388-9.02,20.733-12.019,8.585-3.5,17.478-6.193,26.1-9.614a2.473,2.473,0,0,0,1.676-2.952,2.417,2.417,0,0,0-2.952-1.676Z"/><path class="c" d="M99.478,278.7c-1.178-4.805-2.478-9.639-3.247-14.533a3.509,3.509,0,0,1-.084-.572c-.011.5.07.551.018.1s-.1-.872-.166-1.306a17.8,17.8,0,0,0-.426-1.921c-.55-2.042-1.182-4.063-1.8-6.086a2.432,2.432,0,0,0-2.953-1.676c-11.279,3.655-22.607,7.169-33.947,10.632q-4.413,1.349-8.837,2.66a2.454,2.454,0,0,0-1.677,2.952c1.5,6.773,2.379,13.726,4.51,20.343a133.515,133.515,0,0,0,5.047,12.786c2.266,5.151,4.5,10.35,7.223,15.279,2.4,4.341,5.255,8.807,9.16,11.955a21.4,21.4,0,0,0,12.172,4.6c10.335.757,20.559-4.507,27.9-11.464a89.4,89.4,0,0,0,8.377-9.723c2.856-3.621,5.688-7.281,8.283-11.1,1.742-2.561-2.415-4.965-4.145-2.423a164.131,164.131,0,0,1-13.8,17.676c-5.871,6.5-14.661,12-23.623,12.3A18.33,18.33,0,0,1,76.5,326.49c-3.631-2.42-6.19-6.347-8.354-10.043A145.536,145.536,0,0,1,61.1,301.978c-1.832-4.115-3.64-8.247-5.109-12.509-2.438-7.07-3.386-14.517-4.994-21.8l-1.676,2.952c11.888-3.5,23.712-7.23,35.526-10.972q3.632-1.15,7.258-2.32l-2.952-1.676c.786,2.589,1.618,5.17,2.194,7.815.117.542-.068-.64-.033-.257.011.124.029.248.043.371.06.5.125,1.007.2,1.508.193,1.316.463,2.62.739,3.919.78,3.669,1.668,7.316,2.56,10.959.735,3,5.365,1.729,4.629-1.276Z"/><path class="a" d="M49.135,283.613c-.285-.1-.566-.21-.841-.336-1.034-.473-4.221-14.779-5.079-19.222a24.9,24.9,0,0,1,2.745-12.279c1.342,4.524,1.179,5.893,5.772,6.979s17.93-1.344,26.108-7.844a32.471,32.471,0,0,0,7.463-8.453c5.175-.506,11.966,23.459,12.167,26.477a20.461,20.461,0,0,1-3.463,3.236,56.618,56.618,0,0,1-41.061,12.2A17.4,17.4,0,0,1,49.135,283.613Z"/><path class="c" d="M49.773,281.3c-.692-.258.4.3.4.556a1.7,1.7,0,0,0-.184-.343c-.168-.1.171.489-.017-.054-.054-.158-.114-.314-.169-.471-.365-1.056-.666-2.135-.958-3.212-.772-2.843-1.445-5.714-2.089-8.588q-.426-1.9-.825-3.8c-.1-.494-.2-.991-.3-1.484-.138-.639-.029.208-.056-.427-.015-.365-.018-.728-.009-1.093a20.705,20.705,0,0,1,2.472-9.4l-4.386-.573c.827,2.817,1.393,5.909,4.174,7.474a14.794,14.794,0,0,0,8.248,1.455,44.6,44.6,0,0,0,20.839-6.82,33.427,33.427,0,0,0,10.468-10.854L85.3,244.858c.71-.047-.506-.139.2.035-.326-.08-.386-.274-.145-.037.22.214.414.321.056,0a8.963,8.963,0,0,1,.764.746c.114.126.221.259.33.389-.341-.41.063.093.174.251a32.45,32.45,0,0,1,3.007,5.655c.342.783.843,2.04,1.246,3.112q.662,1.758,1.256,3.54c.716,2.137,1.375,4.294,1.96,6.47.249.923.486,1.849.692,2.783.07.316.133.634.2.952a2.806,2.806,0,0,0,.067.4c.012.034-.073-.692-.037-.223l.7-1.7a46.055,46.055,0,0,1-13.944,9.771,54.148,54.148,0,0,1-20.186,5.19c-3.859.216-8.157.306-11.87-.9-2.945-.956-4.207,3.677-1.276,4.629a32.127,32.127,0,0,0,9.293,1.149,58.093,58.093,0,0,0,9.147-.623,59.751,59.751,0,0,0,17.5-5.389,55.754,55.754,0,0,0,7.715-4.509,41.6,41.6,0,0,0,6.071-4.883,9.1,9.1,0,0,0,1.321-1.527,3.623,3.623,0,0,0,.137-2.609c-.2-1.143-.5-2.273-.791-3.394a107.932,107.932,0,0,0-3.322-10.406,44.418,44.418,0,0,0-4.738-9.914,10.3,10.3,0,0,0-3.045-3.112,4.627,4.627,0,0,0-2.063-.642c-1.86-.114-2.437,1.2-3.342,2.537a30.184,30.184,0,0,1-12.8,10.427A39.162,39.162,0,0,1,54.932,256.6c-.454.012-.91.011-1.364-.011-.2-.01-.408-.028-.612-.042-.53-.036.433.123-.183-.021a11.19,11.19,0,0,1-2.721-.891c-.59-.314.214.171-.094-.051-.112-.081-.532-.612-.2-.158a5.863,5.863,0,0,1-.306-.5c-.054-.093-.275-.647-.1-.2-.452-1.156-.723-2.391-1.072-3.579a2.428,2.428,0,0,0-4.386-.574,24.967,24.967,0,0,0-2.822,8.776,20.684,20.684,0,0,0,.28,7.548c.988,4.7,2.016,9.43,3.4,14.034a20.153,20.153,0,0,0,1.048,2.9,4.136,4.136,0,0,0,2.7,2.1,2.421,2.421,0,0,0,2.952-1.677A2.452,2.452,0,0,0,49.773,281.3Z"/><path class="a" d="M60.691,176.019a11.888,11.888,0,0,1-6.572-5.089,8.8,8.8,0,0,1-1.709-5.312,4.682,4.682,0,0,1,3.325-4.081c2.607-.762,5.275-.222,8.507.979a27.3,27.3,0,0,1,5.777,7.746"/><path class="c" d="M61.329,173.7a9.064,9.064,0,0,1-4.527-3.146,11.842,11.842,0,0,1-1.5-2.41,6.325,6.325,0,0,1-.445-1.4,5.762,5.762,0,0,1-.056-1.054,2.217,2.217,0,0,1,.842-1.452c.124-.108.12-.108-.012,0a3.55,3.55,0,0,1,.309-.194c.1-.059.5-.232.2-.119a5.477,5.477,0,0,1,.757-.211c-.01,0,.746-.124.415-.085a13.489,13.489,0,0,1,6.293,1.2l-1.059-.617a26.5,26.5,0,0,1,5.4,7.26,2.4,2.4,0,0,0,4.145-2.422,31.626,31.626,0,0,0-5.006-7.1,6.408,6.408,0,0,0-2.2-1.751c-.758-.3-1.541-.547-2.325-.766a15.932,15.932,0,0,0-4.443-.65c-3.034.045-6.107,1.3-7.429,4.206-1.413,3.1-.374,6.556,1.44,9.264a14.375,14.375,0,0,0,7.93,6.078,2.4,2.4,0,0,0,1.276-4.629Z"/><path class="a" d="M3.537,161.074c-.028.34-.039.686-.034,1.036.031,2.177,1.149,4.572,3.252,5.137a6.5,6.5,0,0,0,1.965.132c-2.6,1.078-6.1,2.681-6.313,5.666a4.76,4.76,0,0,0,2.032,3.977,10.009,10.009,0,0,0,4.307,1.653l1.774.318-1.336.047c-2.777.1-4.684,4.526-3.931,7.3s3.391,4.643,6.109,5.242l3.044.671-1.955.815c-1.786.745-2.577,3.2-2.56,4.967a4.565,4.565,0,0,0,2.593,3.684c3.805,2.1,8.506.661,12.593-.811l5.492-1.977a5.228,5.228,0,0,0,2.059-1.118,4.911,4.911,0,0,0,.767-4.576c-.651-1.522-2.133-3.387-4.152-3.133,1.492-.915,3.725-.574,5.407-1.562,2.146-1.261,2.672-4.556,1.349-6.715s-2.833-3-5.755-3h-4l6.105-.175a5.545,5.545,0,0,0,3.029-.945,6.361,6.361,0,0,0,1.428-2.74,6.206,6.206,0,0,0-.209-3.408,6.4,6.4,0,0,0-5.132-3.872c-3.3-.544-8-1.13-7.867-.915a12.366,12.366,0,0,0,2.928-.325c2.744-.867,3.891-4.493,2.791-7.152s-3.82-4.346-6.6-5.074a38.522,38.522,0,0,0-7.691-.814c-3.14.027-6,.028-8.219,1.64A7.988,7.988,0,0,0,3.537,161.074Z"/><path class="c" d="M17.74,164.605l-7.385.307c-1.5.063-3.216.566-4.009-.984a5.784,5.784,0,0,1,2.61-7.388,12.574,12.574,0,0,1,5.216-.731,35.222,35.222,0,0,1,6.569.429c2.689.482,6.71,2.062,6.586,5.324a2.593,2.593,0,0,1-1.875,2.679,22.539,22.539,0,0,1-3.5.188l-4.214.176c-3.078.128-3.094,4.929,0,4.8l4.682-.195a19.065,19.065,0,0,0,4.741-.455,7.171,7.171,0,0,0,4.612-4.872c1.631-5.3-2.385-9.754-7.045-11.538a27.572,27.572,0,0,0-8.568-1.287,22.313,22.313,0,0,0-8.047.676,10.641,10.641,0,0,0-6.778,12.33,6.912,6.912,0,0,0,5.834,5.67,33.1,33.1,0,0,0,4.907-.093l5.662-.236C20.817,169.277,20.833,164.476,17.74,164.605Z"/><path class="c" d="M6.652,165.671c-4,1.776-8.181,5.311-6.1,10.17,2.23,5.2,8.962,5.656,13.847,5.679,5.571.025,11.158-.279,16.727-.439,2.215-.064,4.693-.241,6.252-2.032a8.573,8.573,0,0,0,1.763-7.3A8.179,8.179,0,0,0,34.4,166.1c-2.563-1.145-5.639-1.264-8.395-1.592a2.413,2.413,0,0,0-2.4,2.4,2.458,2.458,0,0,0,2.4,2.4c1.721.2,3.478.385,5.174.752a4.2,4.2,0,0,1,3.054,2.049,3.743,3.743,0,0,1-.414,3.748c.19-.19-.05.065-.182.112a4.943,4.943,0,0,1-1,.258,27.252,27.252,0,0,1-2.728.086q-6.212.179-12.423.357a57.8,57.8,0,0,1-6.16-.072,11.279,11.279,0,0,1-5.15-1.3c-3.541-2.286.814-4.561,2.9-5.486a2.417,2.417,0,0,0,.861-3.284,2.459,2.459,0,0,0-3.283-.861Z"/><path class="c" d="M9.184,176.64c-4.179.351-6.707,4.811-6.483,8.737.268,4.7,4.534,8.011,8.932,8.681a26.584,26.584,0,0,0,8.192-.367c2.761-.433,5.521-.882,8.281-1.323,2.469-.394,5.562-.427,7.756-1.755a7.006,7.006,0,0,0,3.213-5.408,8.144,8.144,0,0,0-2.324-6.349,8.691,8.691,0,0,0-6.507-2.435c-3.09-.042-3.091,4.758,0,4.8,1.444.02,2.473.191,3.316,1.26a3.007,3.007,0,0,1,.32,3.571,2.679,2.679,0,0,1-1.827.844c-1.241.251-2.506.409-3.756.609l-7.823,1.25c-3.757.6-9.041,1.893-11.977-1.393a3.516,3.516,0,0,1-.836-3.588A5.221,5.221,0,0,1,8.4,182.13c.1-.138.617-.6.538-.546.131-.088.432-.16.247-.144a2.461,2.461,0,0,0,2.4-2.4,2.419,2.419,0,0,0-2.4-2.4Z"/><path class="c" d="M11.24,191c-2.876,1.372-4.357,5.5-3.544,8.5,1.012,3.729,5.1,5.494,8.644,5.666,3.826.187,7.532-1.272,11.065-2.544,3.375-1.215,7.526-1.983,8.433-6.026.807-3.6-1.361-8.249-5.341-8.812a2.481,2.481,0,0,0-2.952,1.677,2.417,2.417,0,0,0,1.676,2.952c1.7.24,2.748,2.646,1.694,3.734a5.17,5.17,0,0,1-1.829.782l-2.534.912c-1.587.572-3.167,1.171-4.782,1.659-2.568.777-5.938,1.612-8.367-.017a2.131,2.131,0,0,1-1.109-1.924,2.8,2.8,0,0,1,1.368-2.41,2.422,2.422,0,0,0,.861-3.284A2.451,2.451,0,0,0,11.24,191Z"/><path class="c" d="M208.148,184.64c-3.1-.025-6.25-.208-9.351-.076a5.633,5.633,0,0,0-5.54,5.222c-.226,2.924.1,5.987.156,8.919s1.778,5.692,2.849,8.37c.594,1.483,1.431,3.026,1.235,4.637q-.1.82-.189,1.643c-.179,1.613-.344,3.228-.507,4.843-1.153,11.417-2.185,22.846-3.223,34.273q-2.05,22.56-4.025,45.125-1.7,19.329-3.354,38.661-.489,5.747-.964,11.5c-.047.572-.125,1.152-.139,1.726-.067,2.9,2.411,5.231,4.107,7.336,3.725,4.62,7.66,9.072,11.679,13.437,1.965,2.134,3.756,4.519,6.873,4.757,2.9.222,4.561-1.413,6.353-3.39,4.15-4.579,8.38-9.094,12.291-13.883q1.433-1.752,2.8-3.559a7.864,7.864,0,0,0,2-4.31,15.092,15.092,0,0,0-.125-1.933q-.194-2.4-.4-4.8-1.431-17.114-2.936-34.223-1.968-22.614-3.993-45.222c-1.162-12.937-2.33-25.875-3.583-38.8-.374-3.853-.746-7.707-1.178-11.554-.066-.579-.132-1.159-.2-1.737-.207-1.66.8-3.409,1.411-4.926.555-1.368,1.141-2.721,1.712-4.082a15.025,15.025,0,0,0,.786-1.974,11.983,11.983,0,0,0,.2-2.85c.018-1.384.054-2.767.089-4.149a23.467,23.467,0,0,0-.028-4.467,5.639,5.639,0,0,0-5.812-4.581c-3-.01-6,.049-8.994.073-3.087.026-3.094,4.826,0,4.8,2.993-.024,6-.142,8.994-.073.686.015.96.088,1.112.765a8.224,8.224,0,0,1-.032,1.834c-.016.759-.037,1.518-.056,2.277-.038,1.487-.051,2.975-.083,4.462a10.573,10.573,0,0,1-1.249,3.662c-.568,1.341-1.138,2.68-1.667,4.036a13,13,0,0,0-1.262,4.3,30.785,30.785,0,0,0,.4,3.649q.279,2.56.532,5.124c1.148,11.419,2.183,22.851,3.22,34.281q1.992,21.962,3.91,43.93,1.659,18.936,3.277,37.877.492,5.793.971,11.587.075.906.147,1.813c.132,1.654-1.536,3.115-2.524,4.351-3.765,4.715-7.872,9.144-11.933,13.6-.847.931-1.664,1.9-2.543,2.8.016-.016-.606.5-.312.312-.013.008-.369.164-.169.1a2.2,2.2,0,0,1-1.279.025c-.866-.292-1.611-1.453-2.207-2.1q-1.57-1.689-3.119-3.4c-3.822-4.221-7.568-8.522-11.077-13.007-.519-.664-1.285-1.386-1.294-2.248,0-.252.041-.514.061-.766q.077-.951.155-1.9.212-2.586.431-5.172,1.435-17.037,2.936-34.068,1.926-22.047,3.9-44.089,1.695-18.852,3.474-37.7c.374-3.891.748-7.783,1.17-11.67a15.637,15.637,0,0,0,.27-4.04c-.446-2.748-1.936-5.5-3.014-8.046a9.461,9.461,0,0,1-1.08-3.728c-.015-1.47-.052-2.939-.089-4.408q-.027-1.031-.051-2.061a8.618,8.618,0,0,1-.047-1.673c.145-.67.52-.7,1.132-.722,2.982-.13,6.01.049,8.994.073C211.238,189.466,211.24,184.666,208.148,184.64Z"/><path class="c" d="M200.178,213.113c5.358,0,10.715-.214,16.073-.219a2.4,2.4,0,0,0,0-4.8c-5.358,0-10.715.214-16.073.219a2.4,2.4,0,0,0,0,4.8Z"/><path class="a" d="M168.453,183.907c3.078,4.382,16.948,20.725,19.554,21.249,1.27.255,13.447-15.766,15.89-20.375-1.8-2.2-27.128-18.938-27.473-18.836-.317.094-9.243,14.736-9.165,16.012A8.778,8.778,0,0,0,168.453,183.907Z"/><path class="a" d="M247.262,183.907c-3.078,4.382-16.948,20.725-19.554,21.249-1.27.255-13.447-15.766-15.891-20.375,1.8-2.2,26.864-18.773,27.209-18.671.317.094,9.508,14.571,9.43,15.847A8.823,8.823,0,0,1,247.262,183.907Z"/><path class="c" d="M166.381,185.119c2.277,3.224,4.874,6.249,7.439,9.244a135.261,135.261,0,0,0,9.2,9.98,16.438,16.438,0,0,0,3.383,2.733c1.628.871,2.972.319,4.238-.826,2.877-2.6,5.214-5.975,7.554-9.041a86.685,86.685,0,0,0,7.776-11.217,2.5,2.5,0,0,0-.375-2.908,17.262,17.262,0,0,0-2.921-2.393c-1.614-1.21-3.265-2.372-4.92-3.526q-6.172-4.305-12.469-8.434a75.463,75.463,0,0,0-7.552-4.822c-2.056-1.027-3.248.519-4.242,2.058-1.178,1.824-2.3,3.686-3.409,5.551-1.341,2.256-2.677,4.522-3.885,6.853a14.593,14.593,0,0,0-1.178,2.595c-.461,1.623.474,2.877,1.362,4.153a2.463,2.463,0,0,0,3.283.861,2.422,2.422,0,0,0,.861-3.284c-.267-.384-.538-.767-.786-1.165-.452-.728-.087-.765-.08.385,0,.848.011.515.051.153.033-.306-.287.587-.014.034.064-.13.122-.262.185-.392.148-.309.3-.614.461-.917.95-1.834,1.986-3.623,3.029-5.4q1.6-2.722,3.258-5.4c.394-.634.79-1.267,1.2-1.892.131-.2.272-.395.4-.6.295-.47-.456.441-.593.522l-1.211.327c-.22,0-1.425-.527-.914-.184.207.139.435.255.648.386.648.4,1.288.805,1.927,1.214,2.074,1.328,4.131,2.683,6.183,4.044,4.783,3.173,9.554,6.375,14.211,9.732q.756.543,1.5,1.1c.218.162.434.326.652.489.544.407-.3-.248.2.152a9.732,9.732,0,0,1,1.369,1.2l-.375-2.908A75.434,75.434,0,0,1,195.7,192.6a107.285,107.285,0,0,1-7.384,9.178c-.372.4-.763.778-1.155,1.159-.517.5.339-.18-.035.034-.038.021-.075.044-.114.064a2.789,2.789,0,0,1,1.508-.228c.8.2.285.146,0-.054-.172-.121-.345-.239-.516-.363.627.455-.224-.2-.369-.324-.337-.292-.666-.594-.99-.9a123.648,123.648,0,0,1-8.57-9.2q-2.349-2.712-4.617-5.493-.924-1.136-1.827-2.29c-.408-.521.288.38-.093-.119q-.208-.275-.416-.55-.3-.4-.593-.815a2.465,2.465,0,0,0-3.283-.861A2.42,2.42,0,0,0,166.381,185.119Z"/><path class="c" d="M245.19,182.7c-.362.512-.74,1.013-1.122,1.511.354-.461-.266.339-.362.461q-.489.621-.986,1.235-1.978,2.454-4.031,4.845c-2.833,3.316-5.721,6.612-8.836,9.668-.533.523-1.074,1.039-1.636,1.532-.248.219-.5.43-.759.639.5-.4-.054.017-.259.165-.281.2-.805.255,0,.054a3.608,3.608,0,0,1,1.453.2c-.521-.273.384.42-.008.007-.211-.222-.454-.418-.669-.636a82.407,82.407,0,0,1-7.006-8.508,82.156,82.156,0,0,1-7.079-10.3l-.375,2.908a7.954,7.954,0,0,1,1.131-1.014c.155-.125.313-.248.47-.371-.419.329-.105.081.112-.082q.625-.471,1.258-.934c2.105-1.539,4.249-3.027,6.4-4.5q6.87-4.722,13.871-9.256c.778-.5,1.558-1,2.346-1.49.25-.154.507-.3.755-.455.649-.414-.522.144-.831.137l-1.211-.328a3.483,3.483,0,1,0-.394-.282c.058.061-.437-.627-.193-.243.116.183.251.356.373.535.414.607.815,1.224,1.214,1.84q1.742,2.692,3.408,5.433c1.057,1.734,2.107,3.478,3.074,5.264.178.329.354.658.52.993.072.144.425.988.264.538s-.009-.029.009.059c.055.276-.039.257-.034-.4.009-1.329.405-1.058,0-.52-.309.416-.575.874-.871,1.3a2.422,2.422,0,0,0,.861,3.284,2.449,2.449,0,0,0,3.283-.861c.844-1.213,1.8-2.448,1.405-4.007a10.073,10.073,0,0,0-.885-2.025c-1-1.954-2.146-3.838-3.285-5.713q-1.842-3.035-3.772-6.016c-.762-1.173-1.674-3.161-3.133-3.562-1.3-.356-2.463.558-3.495,1.206-1.462.918-2.908,1.862-4.352,2.809q-6.245,4.093-12.391,8.332c-1.976,1.365-3.947,2.74-5.878,4.168a19.586,19.586,0,0,0-3.428,2.773,2.5,2.5,0,0,0-.375,2.908,79.073,79.073,0,0,0,6.646,9.722,101.3,101.3,0,0,0,8.025,9.888c.973,1,2.1,2.1,3.611,1.911,1.442-.181,2.685-1.369,3.721-2.292a102.327,102.327,0,0,0,8.906-9.421,137.094,137.094,0,0,0,8.68-10.681,2.42,2.42,0,0,0-.861-3.284A2.449,2.449,0,0,0,245.19,182.7Z"/></svg>