<?xml version="1.0" encoding="utf-8"?>

<!DOCTYPE svg PUBLIC "-//W3C//DTD SVG 1.1//EN" "http://www.w3.org/Graphics/SVG/1.1/DTD/svg11.dtd">
<!-- Uploaded to: SVG Repo, www.svgrepo.com, Generator: SVG Repo Mixer Tools -->
<svg height="800px" width="800px" version="1.1" id="_x32_" xmlns="http://www.w3.org/2000/svg" xmlns:xlink="http://www.w3.org/1999/xlink" 
	 viewBox="0 0 512 512"  xml:space="preserve">
<style type="text/css">
	.st0{fill:#000000;}
</style>
<g>
	<path class="st0" d="M162.592,147.193c0,0,56.607,11.331,130.198-62.272c33.969,45.3,56.63,67.938,56.63,67.938v67.96
		c22.727-23.44,36.795-55.36,36.795-90.598C386.215,58.298,327.917,0,255.994,0c-71.9,0-130.198,58.298-130.198,130.221
		c0,35.238,14.046,67.157,36.795,90.598V147.193z"/>
	<path class="st0" d="M343.32,297.426c-9.137,4.996-87.325,176.655-87.325,176.655s-78.176-171.658-87.326-176.655
		C80.654,329.18,76.724,400.311,76.724,512h358.552C435.276,400.311,431.347,329.18,343.32,297.426z"/>
	<polygon class="st0" points="217.017,289.757 217.017,341.733 255.994,328.478 294.982,341.733 294.982,289.757 255.994,303.013 	
		"/>
</g>
</svg>