<?xml version="1.0" encoding="utf-8"?>
<!-- Uploaded to: SVG Repo, www.svgrepo.com, Generator: SVG Repo Mixer Tools -->
<svg width="800px" height="800px" viewBox="-58.04 0 363.845 363.845" xmlns="http://www.w3.org/2000/svg"><defs><style>.a{fill:#ffffff;}.b{fill:#7a7473;}.c{fill:#211715;}.d{fill:#87cce3;}</style></defs><path class="a" d="M165.215,192.464c-1-.4-3.788-1.666-4.155-1.8-5.553-2-5.334-5.575-6.033-9.569a78.143,78.143,0,0,1-1.233-13.109c12.929-7.66,22.969-24.624,24.851-29.734.311-.942.943-2.717,1.506-4.823l1.174-.182a14.741,14.741,0,0,0,6.859-3.092,22.254,22.254,0,0,0,5.753-7.55,35.005,35.005,0,0,0,3.569-18.554,11.68,11.68,0,0,0-1.223-4.7,8.261,8.261,0,0,0-5.94-3.949,8.751,8.751,0,0,0-7,2.048s2-48.03-57.764-48.03c-50,0-59.036,33.4-59.627,44.549a32.33,32.33,0,0,0-.028,3.481,8.751,8.751,0,0,0-7-2.048,8.261,8.261,0,0,0-5.94,3.949,11.68,11.68,0,0,0-1.223,4.7,35.005,35.005,0,0,0,3.569,18.554,22.241,22.241,0,0,0,5.753,7.55,14.741,14.741,0,0,0,6.859,3.092s.845.13,2.235.341A59.524,59.524,0,0,0,81.52,155.735a53.178,53.178,0,0,0,14.609,12.512A78.569,78.569,0,0,1,94.9,181.1c-.7,3.994-.48,7.564-6.033,9.569-.367.133-3,1.3-4.155,1.8,0,0,2.172,21.364,37.728,21.364S165.215,192.464,165.215,192.464Z"/><path class="b" d="M108.633,3.062C95.552,4.554,82.091,9.262,71.18,20.243L76.4,24.7c-8.9,5.5-15.891,16.155-19.1,25.587-3.779,11.1-4.908,26.889-.421,45.547l.033.137a8.2,8.2,0,0,1,2.011-.568,8.751,8.751,0,0,1,7,2.048l7.5-4.468.617-.368c15.864-14.845,24.709-20.991,38.927-32.161.086.99,3.256,8.915,4,9.217.914.372,10.079-5.294,17.538-9.9L147.094,61.3c5.783,1.265,11.21,4.407,16.1,8.611,8.662,7.454,15.628,18.247,19.875,27.849a8.566,8.566,0,0,1,7.277-2.356,8.236,8.236,0,0,1,1.525.379c4.35-11.175,4.987-27.364-.506-42.723-3.863-10.8-13.071-22.091-20.332-25.268l-8.571-6.109c-8.413-11.524-22.435-18.589-40.382-19.138A93.633,93.633,0,0,0,108.633,3.062Z"/><path class="c" d="M185.039,99.149a6.261,6.261,0,0,1,8.794.814c1.144,1.509,1.276,3.6,1.362,5.416a31.6,31.6,0,0,1-.349,6.648c-1.3,7.825-5.436,17.417-14.159,18.907a2.419,2.419,0,0,0-1.676,2.952,2.455,2.455,0,0,0,2.952,1.676c8.8-1.5,14.009-9.8,16.442-17.716a36.824,36.824,0,0,0,1.566-12.91c-.252-4.221-1.441-8.154-5.25-10.461a11.238,11.238,0,0,0-13.076,1.28,2.421,2.421,0,0,0,0,3.394,2.449,2.449,0,0,0,3.394,0Z"/><path class="c" d="M178.835,126.734a30.114,30.114,0,0,1-1.477,7.732c-.261.859-.544,1.71-.83,2.561-.091.271-.187.539-.281.809-.027.079-.064.155-.093.234-.158.438.217-.482.028-.065a59.951,59.951,0,0,1-3.908,7.144,69.8,69.8,0,0,1-15.632,18,29.771,29.771,0,0,1-11.562,5.84c-3.01.689-1.736,5.318,1.276,4.628,8.673-1.988,15.937-8.232,21.667-14.763a75.422,75.422,0,0,0,12.119-18.011,37.936,37.936,0,0,0,3.493-14.107c.1-3.089-4.7-3.086-4.8,0Z"/><path class="c" d="M67.62,95.755a11.211,11.211,0,0,0-11.508-2.037c-4.138,1.689-6.147,5.234-6.667,9.528a35.811,35.811,0,0,0,6.138,24.465c2.853,3.935,6.837,7.018,11.719,7.851a2.47,2.47,0,0,0,2.952-1.676,2.419,2.419,0,0,0-1.676-2.952c-8.723-1.49-12.856-11.082-14.159-18.907a31.489,31.489,0,0,1-.358-6.427c.075-1.836.18-3.931,1.272-5.489a6.232,6.232,0,0,1,8.892-.962,2.463,2.463,0,0,0,3.4,0,2.421,2.421,0,0,0,0-3.394Z"/><path class="c" d="M65.978,125.832a70.128,70.128,0,0,0,8.967,24.845c5.082,8.264,12.425,15.728,21.074,20.238a40.6,40.6,0,0,0,14.693,4.405,2.416,2.416,0,0,0,2.4-2.4,2.454,2.454,0,0,0-2.4-2.4C93.05,168.7,79.305,152.887,73.757,136.976a78.238,78.238,0,0,1-3.151-12.42,2.419,2.419,0,0,0-2.952-1.676,2.454,2.454,0,0,0-1.676,2.952Z"/><path class="c" d="M169.819,29.865a27.943,27.943,0,0,1,8.9,7.008A54.281,54.281,0,0,1,186.7,48.384c4.645,8.919,6.484,19.458,6.18,29.451a54.343,54.343,0,0,1-2.551,15.158c-.956,2.945,3.677,4.206,4.629,1.276,3.225-9.934,3.43-20.761,1.606-30.986A59.724,59.724,0,0,0,183.406,34.95c-3.07-3.635-6.768-7.257-11.164-9.23a2.475,2.475,0,0,0-3.284.861,2.42,2.42,0,0,0,.861,3.284Z"/><path class="c" d="M80.647,19.985C70.19,23.9,62.428,33.346,57.671,43.159c-4.651,9.591-6.3,20.315-6.092,30.91a105.752,105.752,0,0,0,2.985,22.4c.715,3,5.345,1.732,4.629-1.276-4.859-20.395-4.5-43.765,9.621-60.567,3.541-4.212,7.89-8.063,13.109-10.016A2.467,2.467,0,0,0,83.6,21.662a2.419,2.419,0,0,0-2.952-1.677Z"/><path class="c" d="M137.072,55.366c-5.007,3.073-9.972,6.219-15.048,9.177-1.014.59-2.032,1.174-3.066,1.729-.406.218-.813.432-1.226.635-.16.079-.321.155-.482.231-.294.14-.489.168-.042.026a1.524,1.524,0,0,0-.379.134c-.146.18-.418-.159.033.024a8.081,8.081,0,0,1,1.678.556c.128.1.3.492.043.018-.436-.805-.842-1.617-1.215-2.455-.439-.987-.842-1.975-1.29-3.164-.174-.464-.346-.928-.5-1.4-.1-.294-.347-1.5-.208-.424a2.44,2.44,0,0,0-4.1-1.7C101.9,66.117,92.3,73.17,83.327,81.032c-3.236,2.837-6.409,5.745-9.547,8.689-2.258,2.118,1.141,5.508,3.394,3.395,9.147-8.581,18.739-16.509,28.682-24.139q4.421-3.393,8.81-6.825l-4.1-1.7a25.042,25.042,0,0,0,2.185,6.325c.762,1.794,1.681,4.923,3.934,5.261,1.773.266,3.744-1.1,5.224-1.914,2.7-1.483,5.336-3.088,7.965-4.693,3.214-1.961,6.409-3.954,9.618-5.923,2.628-1.613.22-5.766-2.423-4.145Z"/><path class="c" d="M146.456,63.614c8.3,1.88,15.155,7.381,20.724,13.6a83.452,83.452,0,0,1,13.382,20.8,2.418,2.418,0,0,0,3.283.861,2.455,2.455,0,0,0,.861-3.283,87.156,87.156,0,0,0-14.417-22.083c-6.035-6.66-13.644-12.5-22.557-14.52-3.008-.682-4.292,3.945-1.276,4.628Z"/><path class="c" d="M93.726,168.682a74.6,74.6,0,0,1-.808,9.719,52.422,52.422,0,0,1-1.121,6.43,5.14,5.14,0,0,1-.784,1.685,5.808,5.808,0,0,1-2.3,1.645c-1.73.758-3.481,1.473-5.212,2.231a2.415,2.415,0,0,0-.861,3.283,2.459,2.459,0,0,0,3.283.861c1.005-.439,2.007-.882,3.013-1.317.214-.093.428-.187.644-.277-.187.078-.369.14-.075.037a15.86,15.86,0,0,0,2.1-.906,9.525,9.525,0,0,0,4.677-5.494,39.788,39.788,0,0,0,1.233-6.674,84.409,84.409,0,0,0,1.014-11.223c.06-3.09-4.74-3.09-4.8,0Z"/><path class="c" d="M151.4,168.682a84.409,84.409,0,0,0,1.014,11.223,36.526,36.526,0,0,0,1.314,6.905,9.622,9.622,0,0,0,5.066,5.5c.413.193.837.368,1.261.534.162.063.861.341.111.027.384.161.763.333,1.144.5,1.086.479,2.17.964,3.27,1.41a2.415,2.415,0,0,0,2.952-1.676,2.459,2.459,0,0,0-1.676-2.952c-.563-.229.519.226-.207-.086-.206-.088-.411-.178-.617-.268q-.712-.312-1.424-.628c-.773-.34-1.559-.648-2.334-.982a6,6,0,0,1-2.277-1.571,4.758,4.758,0,0,1-.868-1.784,51.664,51.664,0,0,1-1.087-6.2,75.128,75.128,0,0,1-.842-9.947c-.06-3.085-4.86-3.095-4.8,0Z"/><path class="c" d="M164.531,20.472C156.554,9.635,144.41,3.107,131.224,1.018,117.811-1.107,103.094.038,90.4,4.983A60.556,60.556,0,0,0,69.483,18.546c-2.188,2.186,1.2,5.581,3.394,3.394C82.355,12.471,94.9,7.117,108.113,5.524c12.542-1.513,26.034-.8,37.467,5.017A41.87,41.87,0,0,1,160.386,22.9a2.473,2.473,0,0,0,3.284.861,2.418,2.418,0,0,0,.861-3.284Z"/><path class="a" d="M2.414,323.709c.137,14.265,7.177,26.459,13.026,30.265,3.974,2.586,6.518,3.556,13.726,3.374,5.262-.132,13.839-2.2,18.439-5.079-.027,2.436-.027,5-.027,7.737l197.79,1.52c0-17.94-1.1-95.5-7.22-112a47.563,47.563,0,0,0-6.58-13.23,77.858,77.858,0,0,0-19.98-20.12c-4.02-2.85-18.23-11.17-34.85-18.69-3.729-1.692-7.458-3.52-11.015-5.512.026-.4.045-.709.045-.709.081-1.325-5.64-11.868-7.5-16.658-.124-.32-.288-.678-.616-.775-.359-.106-.714.154-1,.4-3.173,2.725-20.591,16.913-22.459,19.2-.453,1.525-1.291,5.074-2.331,8.243-2.154,5.184-4.867,11.63-6.949,15.995-1.449-3.121-4.154-9.776-5.661-13.349-1.866-5.866-2.976-8.725-3.619-10.889-1.868-2.289-19.286-16.477-22.459-19.2-.283-.244-.638-.5-1-.4-.328.1-.492.455-.616.775-1.855,4.79-7.576,15.333-7.5,16.658l-45.008,23.15c-8.215,6.5-15.939,13.086-18.885,19.014-5.175,9.8-9.442,26.523-12.5,41.164a265.988,265.988,0,0,0-5.263,49.116"/><path class="c" d="M204.3,274.022A272.574,272.574,0,0,0,201,312.674c-.148,9.312-.1,18.625-.045,27.937q.056,9.7.068,19.391c0,3.088,4.8,3.093,4.8,0,0-10.508-.106-21.015-.124-31.522-.018-10.531,0-21.081.749-31.589q.777-10.845,2.487-21.593a2.474,2.474,0,0,0-1.676-2.952,2.42,2.42,0,0,0-2.953,1.676Z"/><path class="c" d="M126.993,216.459c-.98-2.124-1.879-4.286-2.78-6.444-.968-2.319-2.093-4.637-2.861-7.029-.812-2.529-1.673-5.041-2.534-7.554-.5-1.453-.8-3.019-1.892-4.146-2.084-2.152-4.476-4.046-6.756-5.981q-4.719-4-9.494-7.939-1.92-1.593-3.838-3.187c-1.072-.893-2.306-2.287-3.66-2.66-2.072-.57-3.323.968-4,2.653-.219.543-.075.207-.32.77-.222.51-.452,1.017-.684,1.523-.97,2.107-2,4.188-3.01,6.275-.872,1.794-1.756,3.586-2.542,5.421-.536,1.252-1.2,2.577-.8,3.967a17.889,17.889,0,0,0,1.715,3.47c1.031,1.855,2.117,3.679,3.224,5.489a114.742,114.742,0,0,0,9.425,13.839,3.712,3.712,0,0,0,4.55,1c1.6-.841,2.273-3,3.056-4.525q2.431-4.741,4.923-9.453c1.445-2.728-2.7-5.156-4.145-2.423q-2.013,3.8-3.983,7.625-.862,1.677-1.722,3.356-.255.5-.511,1c-.576,1.126-.441.232,1.028.073.555-.06.383.382.2-.043a2.923,2.923,0,0,0-.359-.462c-2.719-3.559-5.169-7.333-7.532-11.134-1.775-2.856-3.58-5.741-5.073-8.758-.085-.171-.156-.355-.25-.522-.163-.288.158.61.053.1-.059-.285.057.6.057.507,0-.281-.269.592-.047.334a2.4,2.4,0,0,0,.184-.6c.095-.273.206-.541.317-.809-.2.481.177-.392.238-.526.387-.861.793-1.715,1.2-2.566.983-2.05,1.992-4.087,2.972-6.139.472-.989.939-1.981,1.387-2.982a19.644,19.644,0,0,1,1.252-2.765l-.861.861.279-.173-1.212.328.355,0-1.211-.328a1.485,1.485,0,0,1,.613.41l.706.593q.978.818,1.96,1.632,2.589,2.151,5.181,4.3c3.67,3.052,7.348,6.1,10.933,9.253a29.159,29.159,0,0,1,3.222,3.033l-.618-1.059a189.545,189.545,0,0,0,9.523,24.811,2.418,2.418,0,0,0,3.283.861,2.454,2.454,0,0,0,.861-3.283Z"/><path class="c" d="M126.993,218.881c1.984-4.174,3.783-8.436,5.574-12.7a57.744,57.744,0,0,0,2.387-6.387c.548-1.9,1.007-3.828,1.562-5.728l-.618,1.059a24.94,24.94,0,0,1,2.673-2.547c1.617-1.437,3.264-2.84,4.914-4.238,3.695-3.128,7.425-6.214,11.15-9.306q1.122-.932,2.243-1.865.438-.366.874-.733a2.757,2.757,0,0,1,.761-.534l-1.211.328.355,0-1.212-.328.279.173-.861-.861a39.752,39.752,0,0,1,2.3,5.039c.866,1.832,1.761,3.651,2.645,5.474.429.884.857,1.77,1.275,2.66q.249.528.49,1.058c.082.18.162.361.244.541.047.1.3.707.094.206.176.426.291.887.476,1.305.1.226-.038.557-.022-.295,0,.23-.057.22.072-.5-.079.441-.007.028.06-.1a154.648,154.648,0,0,1-11.935,19.2c-.311.424-.623.847-.942,1.265-.048.063-.218.259-.268.347q-.135.173-.271.343.835-.582,1.723.361c.1-.342-.833-1.627-1.028-2.008q-.526-1.03-1.056-2.06-2.2-4.279-4.449-8.532c-1.447-2.73-5.592-.308-4.145,2.423q2.205,4.161,4.356,8.349c1.251,2.434,2.462,6.663,5.989,5.95,2.3-.464,3.734-3.3,5-5.081,1.443-2.025,2.823-4.095,4.167-6.186,2.214-3.445,4.389-6.943,6.308-10.562a7.387,7.387,0,0,0,1.215-3.178c.006-1.405-.839-2.867-1.4-4.1-1.742-3.853-3.723-7.594-5.456-11.452-.146-.326-.456-1.032-.5-1.15-.063-.154-.362-.972-.537-1.3a3.152,3.152,0,0,0-4.826-1.078c-.96.677-1.834,1.515-2.737,2.266-5.684,4.73-11.43,9.4-16.985,14.279-.978.86-1.985,1.713-2.883,2.659a5.226,5.226,0,0,0-1.227,2.4c-.391,1.448-.762,2.9-1.172,4.345a79.386,79.386,0,0,1-3.63,9.455c-1.276,2.986-2.572,5.965-3.965,8.9a2.465,2.465,0,0,0,.861,3.283,2.42,2.42,0,0,0,3.283-.861Z"/><path class="c" d="M122.521,217.67q0,31.721.223,63.441.163,29.432.353,58.862c.038,6.676.081,13.352.082,20.029,0,3.088,4.8,3.093,4.8,0,0-14.507-.133-29.014-.223-43.52q-.2-32.22-.354-64.441-.069-17.185-.081-34.371c0-3.089-4.8-3.094-4.8,0Z"/><path class="c" d="M164.337,193.949c4.92,2.753,10.048,5.039,15.146,7.435q7.014,3.3,13.862,6.931a153.691,153.691,0,0,1,17.234,10.078c12.237,8.7,23.233,21.311,26.513,36.3.456,2.081.81,4.185,1.123,6.293q.132.888.254,1.779c.013.091.063.47,0,.01.019.146.039.291.058.437q.072.557.142,1.113.249,1.986.462,3.977c.668,6.174,1.146,12.368,1.549,18.565.9,13.771,1.412,27.568,1.775,41.363.274,10.366.467,20.736.507,31.106q0,1.095,0,2.19c0,3.089,4.8,3.094,4.8,0,0-9.653-.174-19.307-.4-28.957-.328-13.873-.808-27.746-1.629-41.6-.695-11.732-1.4-23.615-3.542-35.191-2.647-14.327-11.386-26.76-22.307-36.157A108.382,108.382,0,0,0,201.7,207.4c-9.029-5.047-18.379-9.328-27.683-13.824q-3.685-1.78-7.262-3.772c-2.7-1.51-5.121,2.635-2.422,4.145Z"/><path class="c" d="M81.49,189.8c-4.711,2.635-9.609,4.847-14.494,7.13q-6.877,3.213-13.6,6.753a177.828,177.828,0,0,0-17.414,10.047,68.172,68.172,0,0,0-16.608,15.9,43.96,43.96,0,0,0-5.139,10.231,126.573,126.573,0,0,0-4.1,13.122A299.507,299.507,0,0,0,.655,309.158c-.341,5.107-.777,10.32-.623,15.44a48.443,48.443,0,0,0,2.515,14.033c2.275,6.715,6.031,13.845,12.192,17.744a20.9,20.9,0,0,0,9.463,3.256,41.511,41.511,0,0,0,12.242-.814A41.217,41.217,0,0,0,47.9,354.875a24.641,24.641,0,0,0,9.179-8.972,21.326,21.326,0,0,0,2.419-6.092c.677-3.008-3.949-4.293-4.629-1.276a18.573,18.573,0,0,1-6.137,9.921,24.639,24.639,0,0,1-9.555,4.74,40.841,40.841,0,0,1-10.927,1.769c-3.144.036-6.462-.221-9.03-1.54a17.486,17.486,0,0,1-6.29-5.126,34.884,34.884,0,0,1-5.023-8.932,44.1,44.1,0,0,1-2.958-12.573,110.518,110.518,0,0,1,.335-14.913,297.829,297.829,0,0,1,8.451-53.553c1.941-7.953,4.052-16.16,7.956-23.413a38.409,38.409,0,0,1,6.652-8.4A73.447,73.447,0,0,1,36.7,219.1,121.809,121.809,0,0,1,51.4,210.2c8.4-4.59,17.084-8.5,25.682-12.689q3.462-1.686,6.827-3.561c2.7-1.509.278-5.656-2.423-4.145Z"/><path class="c" d="M194.966,148.641c-.585,7.756-5.879,14.968-12.684,18.57-2.731,1.445-.308,5.59,2.423,4.144a28.768,28.768,0,0,0,15.061-22.714,2.421,2.421,0,0,0-2.4-2.4,2.447,2.447,0,0,0-2.4,2.4Z"/><path class="c" d="M203.605,159.877c-.013.187-.032.373-.048.561-.024.284-.022.125.011-.064-.065.362-.122.724-.2,1.083a19.418,19.418,0,0,1-2.489,6.064,20.3,20.3,0,0,1-6.459,6.77,2.4,2.4,0,1,0,2.423,4.144c6.23-3.9,11.033-11.147,11.563-18.558a2.421,2.421,0,0,0-2.4-2.4,2.446,2.446,0,0,0-2.4,2.4Z"/><path class="a" d="M62.21,309.527c-1.21,1.843-2.391,3.7-3.562,5.574.7.158,1.4.3,2.095.428q6.349,1.2,12.781,1.884a31.324,31.324,0,0,0-7.213-13.861C64.9,305.513,63.535,307.509,62.21,309.527Z"/><path class="a" d="M73.206,317.378q-6.266-.678-12.463-1.849c-2.97-.561-6.012-1.243-8.5-2.966-2.393-1.661-4.065-4.147-5.64-6.6-3.06-4.758-6.033-9.747-7.054-15.31s.274-11.878,4.593-15.53c-4.812-2.712-10.929-.5-15.474,2.643a42.416,42.416,0,0,0-11.3,11.563,14.522,14.522,0,0,0-2.782,7.126,16.558,16.558,0,0,0,1.037,5.634C20.844,318.722,29.7,335.551,45.2,343.515c3.718,1.91,8.01,3.266,12.055,2.214s7.457-5.26,6.372-9.3c-.3-1.105-.893-2.3-.388-3.324.493-1,1.76-1.278,2.828-1.612,5.95-1.859,9.081-9.738,6.031-15.174"/><path class="d" d="M106.488,233.519c-1.321,23.521,6.082,58.87,6.649,59.647,1.7,1.292,36.6.889,38.518-.838,1.818-1.634,4.3-39.8,4.242-58.1a2.972,2.972,0,0,0-3.592-3.715c-.2,0-29.659-.329-43.19.426A2.579,2.579,0,0,0,106.488,233.519Z"/><path class="c" d="M104.088,233.519c-.562,10.337.342,20.75,1.615,31,1.037,8.352,2.335,16.692,4.061,24.931.321,1.529.478,3.517,1.288,4.9,1.056,1.806,4.085,1.639,5.878,1.747,6.836.411,13.733.276,20.574.047,3.192-.107,6.39-.245,9.571-.547,1.858-.177,4.444-.156,6.005-1.365,1.447-1.122,1.622-3.47,1.881-5.143.508-3.279.843-6.586,1.147-9.889.833-9.073,1.37-18.176,1.759-27.277.19-4.444.339-8.891.4-13.339a44.425,44.425,0,0,0-.052-5.712,5.074,5.074,0,0,0-2.292-4.006,7.177,7.177,0,0,0-3.638-.757q-8.365-.069-16.731-.069c-8.712.012-17.516-.147-26.211.482a5.2,5.2,0,0,0-5.257,4.991,2.415,2.415,0,0,0,2.4,2.4,2.455,2.455,0,0,0,2.4-2.4c.022-.207.184-.176.293-.189.313-.038,1.2-.055,1.736-.079q2.09-.095,4.18-.153c3.135-.092,6.27-.146,9.406-.183,6.254-.075,12.51-.083,18.765-.06q4.515.018,9.031.06c.265,0,.536-.009.8,0,.363.007.411.237.247-.05a4.327,4.327,0,0,1,.152,1.973q0,2.014-.033,4.03c-.045,3.021-.131,6.043-.24,9.063-.444,12.333-1.063,24.729-2.506,36.992-.057.483-.118.966-.179,1.449-.079.632.045-.287-.041.317-.034.238-.067.475-.1.713-.114.768-.237,1.537-.394,2.3-.1.489-.315.993-.385,1.482-.038.263.359-.622.036-.144a2.128,2.128,0,0,1,.707-.717c-.295.182.355-.113.327-.123-.225-.082-1.14.294-1.4.339-.346.06-1.11.154-.5.082-.426.05-.851.1-1.277.145-2.1.213-4.21.338-6.318.44-5.224.254-10.459.347-15.689.324-2.262-.01-4.526-.043-6.787-.133-.884-.036-1.767-.079-2.649-.146-.342-.025-.683-.053-1.023-.089-.137-.014-.274-.034-.412-.046-.5-.045.621.137.08.008a4.8,4.8,0,0,0-.541-.109c-.544-.064.4.241.177.085l.861.861c.263.412.219.673.105.194-.07-.293-.158-.582-.231-.875-.238-.968-.448-1.944-.654-2.919-.69-3.274-1.294-6.567-1.856-9.865A277.313,277.313,0,0,1,109.1,250a138.074,138.074,0,0,1-.211-16.476C109.056,230.432,104.255,230.442,104.088,233.519Z"/><path class="a" d="M109.29,277.55c3.266-1.346,3.75-4.968,3.5-7.586a4.04,4.04,0,0,0-3.941-3.871c2.8-.607,5.4-4.648,5.08-7.691a4.765,4.765,0,0,0-3.188-4.376l-1.037-.3a7.63,7.63,0,0,0,5.7-9.277c-.342-1.8-3.714-4.166-8.66-3.911-1.816.094-1.9.361-3.828.569-6.348.682-12.226,1.769-17.142,2.611-12.786,2.19-14.595,5-24.118,13.8C53.371,265.188,47.68,275.56,39.6,283.244a19.726,19.726,0,0,0-.043,7.413c1.021,5.563,3.994,10.553,7.054,15.31,1.575,2.449,3.247,4.935,5.64,6.6a17.988,17.988,0,0,0,6.4,2.538c4.463-7.131,9.086-14.137,14.839-20.469a6.984,6.984,0,0,1,3.15-2.35,7.3,7.3,0,0,1,3.428.235c15.283,3.433,12.165,4.016,26.784-1.485a20.309,20.309,0,0,0,5.117-3.082c1.05-.856,2.919-4.322,2.259-8.281C113.885,277.614,111.608,276.516,109.29,277.55Z"/><path class="c" d="M108.889,251.477c-1.524.34-3.014.9-4.518,1.326-.986.278-1.977.544-2.98.757q-.325.069-.654.128c-.115.02-.23.037-.345.057-.379.066.671-.076.318-.042-.164.015-.328.035-.493.04-.291.009-.872-.111.155.06a2.608,2.608,0,0,0-1.85.242,2.4,2.4,0,0,0,.574,4.387c2.1.349,4.325-.379,6.332-.939,1.578-.44,3.139-1.031,4.737-1.388a2.419,2.419,0,0,0,1.677-2.952,2.454,2.454,0,0,0-2.953-1.676Z"/><path class="c" d="M108.208,263.848c-1.981.352-3.906.964-5.857,1.446-1.052.259-2.109.472-3.179.647-.177.025-.142.021.105-.014-.142.017-.284.033-.426.047-.282.028-.565.05-.849.064a14.84,14.84,0,0,1-1.674-.013,2.413,2.413,0,0,0-2.4,2.4,2.456,2.456,0,0,0,2.4,2.4c4.549.288,8.761-1.568,13.156-2.348a2.412,2.412,0,0,0,1.676-2.952,2.467,2.467,0,0,0-2.952-1.677Z"/><path class="c" d="M108.652,275.235c-2.121.616-4.163,1.448-6.24,2.191a22.046,22.046,0,0,1-2.534.777c-.208.048-.418.084-.627.125-.335.064.161-.037.236-.03a1.758,1.758,0,0,0-.26.024,5.31,5.31,0,0,1-.564.013c-.079,0-.163-.017-.241-.013-.261.015.658.105.231.033a2.458,2.458,0,0,0-2.952,1.676,2.429,2.429,0,0,0,1.676,2.952,11.917,11.917,0,0,0,5.985-.813c2.191-.765,4.334-1.658,6.566-2.306a2.4,2.4,0,0,0-1.276-4.629Z"/><path class="c" d="M41.305,284.933c5.679-5.441,10.089-11.985,15.029-18.064a109.5,109.5,0,0,1,14.594-14.6,25.316,25.316,0,0,1,5.605-3.6,27.4,27.4,0,0,1,3.314-1.182c1.516-.443,3.06-.79,4.61-1.092,3.7-.72,7.419-1.346,11.137-1.935,2.086-.331,4.177-.627,6.276-.864a24.449,24.449,0,0,0,3.081-.49,22.687,22.687,0,0,1,2.83-.674,6.785,6.785,0,0,1,2.491.164,3.692,3.692,0,0,1,.806.291c.133.068.774.507.586.352a4.415,4.415,0,0,1,.654.671c-.245-.313.095.206.165.312.294.446.02-.173.142.3.065.253.14.5.181.755a5.115,5.115,0,0,1-3.746,6.132,2.421,2.421,0,0,0,0,4.629,3.229,3.229,0,0,1,1.892.905,3.518,3.518,0,0,1,.591,2.4c-.207,1.79-1.6,3.982-3.333,4.431-2.139.554-2.431,4.283,0,4.629,2.062.293,2.758,1.346,2.622,3.2a4.421,4.421,0,0,1-2.755,3.859c-2.461,1.087-.695,5.361,1.849,4.387s2.279,2.452,1.812,4c-.627,2.072-2.074,3.011-4.132,4.164A50.805,50.805,0,0,1,100.163,291a34.849,34.849,0,0,1-5.065,1.566c-.19.038-1.105.157-.485.093-.332.034-.664.062-1,.072a14.09,14.09,0,0,1-2.163-.116c.573.071-.5-.087-.625-.11-.391-.07-.781-.149-1.17-.23-1.091-.229-2.176-.488-3.261-.745-1.3-.308-2.6-.619-3.908-.919a20.053,20.053,0,0,0-5-.847c-3.52.1-5.767,3.171-7.84,5.627a159.855,159.855,0,0,0-13.072,18.5c-1.644,2.626,2.507,5.038,4.144,2.423a151.37,151.37,0,0,1,12.322-17.526,25.892,25.892,0,0,1,3.405-3.739c1.24-.977,2.968-.219,4.336.095,2.533.58,5.054,1.229,7.6,1.762a19.527,19.527,0,0,0,10.305-.322c2.54-.8,5.018-1.8,7.506-2.739,2.769-1.047,5.766-2.363,7.852-4.553a11,11,0,0,0,2.727-8.594c-.432-3.923-4.134-6.988-8.121-5.46l1.849,4.387c6.679-2.952,7.232-14.665-1.013-15.837v4.629c3.8-.983,6.431-5,6.821-8.746a8.213,8.213,0,0,0-1.3-5.281,7.7,7.7,0,0,0-4.67-2.972v4.629a9.822,9.822,0,0,0,7.053-7.032c.7-3.04.26-6.529-1.982-8.835-2.794-2.873-7.082-2.932-10.707-1.967a57.57,57.57,0,0,1-7.008,1.122c-2.2.3-4.4.66-6.59,1.036-6.572,1.128-13.6,1.894-19.407,5.446a43.819,43.819,0,0,0-6.638,5.264c-2.847,2.615-5.754,5.212-8.378,8.054-6.617,7.169-11.7,15.639-18.768,22.41-2.235,2.142,1.162,5.533,3.394,3.394Z"/><path class="c" d="M73.206,314.978c-4.389-.482-8.775-1.119-13.1-2.014a19.754,19.754,0,0,1-5.55-1.8,12.843,12.843,0,0,1-4-3.645,63.676,63.676,0,0,1-6.264-10.316,23.305,23.305,0,0,1-2.664-10.623,13.052,13.052,0,0,1,4.215-9.76,2.417,2.417,0,0,0-.486-3.77c-5.257-2.817-11.315-1.3-16.211,1.569a43,43,0,0,0-12.411,11.45,22.831,22.831,0,0,0-4.175,7.85c-.783,3.135-.087,6.161.866,9.17a114.657,114.657,0,0,0,5.655,14.5c4.426,9.338,10.53,18,18.876,24.223,4.422,3.3,9.687,6.194,15.273,6.634,5.419.428,11.106-2.589,12.658-8.048a8.847,8.847,0,0,0,.135-4.271,13.191,13.191,0,0,1-.577-2.225c.023.73-.266.382-.094.369a5.756,5.756,0,0,0,.863-.315,12.591,12.591,0,0,0,6.248-4.075,13.484,13.484,0,0,0,1.708-14.774c-1.464-2.721-5.609-.3-4.144,2.422a8.563,8.563,0,0,1-1.149,9.2,7.839,7.839,0,0,1-3.939,2.6c-2.775.857-4.751,2.71-4.155,5.838a13.116,13.116,0,0,1,.646,2.946,4.909,4.909,0,0,1-.846,2.443,6.964,6.964,0,0,1-4.806,3.04c-4.691.729-9.483-1.95-13.261-4.429-7.443-4.885-13.013-12.134-17.21-19.89a93.1,93.1,0,0,1-5.533-12.407c-.829-2.274-1.634-4.575-2.279-6.909a9.17,9.17,0,0,1,.525-6.993,36.289,36.289,0,0,1,10.845-12.4c3.79-2.785,9.4-5.874,14.07-3.37l-.486-3.769c-6.617,5.772-6.676,15.657-3.608,23.25a65.3,65.3,0,0,0,6.726,12.069c2.723,4.01,6,6.88,10.729,8.234,5.446,1.558,11.294,2.178,16.909,2.8a2.415,2.415,0,0,0,2.4-2.4,2.457,2.457,0,0,0-2.4-2.4Z"/><path class="c" d="M75.416,315.144a33.733,33.733,0,0,0-5.349-10.768,2.62,2.62,0,0,0-1.435-1.1,2.4,2.4,0,0,0-2.71,3.525,31.921,31.921,0,0,1,2.979,4.785c.2.4.4.8.579,1.212.051.111.382.85.116.248.1.218.182.442.269.664.349.89.654,1.8.923,2.713a2.4,2.4,0,0,0,4.628-1.276Z"/><path class="c" d="M43.675,326.406a23.629,23.629,0,0,0,7.375,6.152,2.4,2.4,0,0,0,2.422-4.144,21.8,21.8,0,0,1-3.072-1.972l.486.375a22.676,22.676,0,0,1-3.817-3.805,2.4,2.4,0,0,0-1.7-.7,2.443,2.443,0,0,0-1.7.7,2.412,2.412,0,0,0-.7,1.7,2.78,2.78,0,0,0,.7,1.7Z"/><path class="c" d="M122.694,145.942a16.179,16.179,0,0,1,6.477-2.46c.161-.028.323-.053.485-.076q-.35.048.092-.006c.244-.021.488-.046.733-.063a19.418,19.418,0,0,1,1.96-.033,12.664,12.664,0,0,1,3.24.457,2.4,2.4,0,0,0,1.276-4.629,21.81,21.81,0,0,0-16.685,2.666,2.4,2.4,0,1,0,2.422,4.144Z"/><path class="c" d="M139.837,133.872c-3.709,3.182-6.363,8.049-5.191,13.029a9.947,9.947,0,0,0,3.831,5.76c1.022.737,2.48,1.494,3.761,1.185a2.776,2.776,0,0,0,2.009-1.935,2.92,2.92,0,0,0-.717-2.745,2.419,2.419,0,0,0-3.394,0,2.453,2.453,0,0,0,0,3.394l.095.115-.617-1.059.03.144v-1.276l.4-.68,1.059-.617-.145.03h1.276c-.054-.016-.607-.2-.326-.091.264.1-.294-.15-.3-.15-.125-.068-.248-.141-.367-.217,0,0-.489-.365-.274-.188s-.248-.243-.239-.234c-.1-.1-.2-.2-.3-.309,0,0-.379-.478-.221-.259s-.154-.246-.182-.292a8.2,8.2,0,0,1-.466-.866c-.11-.235.074.279-.048-.14-.051-.176-.115-.349-.164-.526a7.634,7.634,0,0,1-.209-.969c.051.353.019.068.008-.128s-.014-.365-.011-.548c0-.146.012-.291.021-.437.044-.771-.051.2.024-.232a9.535,9.535,0,0,1,.255-1.091c.059-.2.125-.4.2-.591.036-.1.219-.518.089-.235.157-.342.331-.676.519-1a12.546,12.546,0,0,1,2.981-3.447,2.421,2.421,0,0,0,0-3.394,2.448,2.448,0,0,0-3.394,0Z"/><path class="c" d="M124.606,117.926a52.874,52.874,0,0,1,1.248,5.71l-.086-.638a3.463,3.463,0,0,1,.022.788l.085-.638a1.894,1.894,0,0,1-.086.355l.242-.574a1.481,1.481,0,0,1-.125.228l.375-.486a1.162,1.162,0,0,1-.187.184l.486-.375a3.548,3.548,0,0,1-.452.239l.573-.242a3.33,3.33,0,0,1-.762.223l.638-.086a3.009,3.009,0,0,1-.716,0l.638.086c-.269-.038-.534-.1-.8-.14a2.655,2.655,0,0,0-1.849.242,2.4,2.4,0,0,0-.861,3.284,2.3,2.3,0,0,0,1.434,1.1c.567.076,1.118.222,1.694.247a5.322,5.322,0,0,0,2.438-.571,3.4,3.4,0,0,0,1.92-2.257,5.89,5.89,0,0,0-.027-2.49c-.311-1.839-.736-3.663-1.209-5.467a2.4,2.4,0,0,0-4.629,1.276Z"/><path class="c" d="M93.907,101.9c-.954,3.1-.332,10.226,5.538,10.833,7.759-.047,8.171-8.664,5.56-12.716C102.866,96.7,96.578,95.316,93.907,101.9Z"/><path class="c" d="M156.038,101.9c.954,3.1.333,10.226-5.537,10.833-7.759-.047-8.172-8.665-5.561-12.717C147.079,96.7,153.366,95.316,156.038,101.9Z"/></svg>